<svg width="800" height="884" viewBox="0 0 800 884" fill="none" xmlns="http://www.w3.org/2000/svg">
<g clip-path="url(#clip0_196_120)">
<path d="M675.5 362.5H612H600H569V329.5V233.5V147.5L555 86H532.5H469V69.5L422 24.5L360.5 49L323.5 86H278.5L231.5 123L194.5 135L119 147.5V188.5L108.5 307V460.5V569.5L139 680L194.5 757.5L278.5 770L444.5 784.5L569 757.5L649 714.5L688 614.5V524V426L675.5 362.5Z" fill="#C7A7FE" stroke="black"/>
<path d="M169.072 114.522C181.346 114.522 192.99 117.237 203.467 122.065C210.575 83.7674 244.209 54.6689 284.536 54.6689C297.204 54.6689 309.209 57.5456 319.946 62.6722C328.84 26.7299 361.349 0 400 0C438.651 0 471.16 26.7315 480.054 62.6722C490.789 57.5472 502.796 54.6689 515.464 54.6689C560.94 54.6689 597.938 91.6668 597.938 137.143V338.746C608.048 334.316 619.202 331.84 630.928 331.84C676.404 331.84 713.402 368.838 713.402 414.314V583.918C713.402 703.065 616.468 800 497.32 800H302.68C183.533 800 86.5979 703.065 86.5979 583.918V196.996C86.5979 151.518 123.596 114.522 169.072 114.522ZM136.082 583.918C136.082 675.779 210.819 750.515 302.68 750.515H497.32C589.181 750.515 663.918 675.779 663.918 583.918V414.314C663.918 396.124 649.118 381.325 630.928 381.325C612.737 381.325 597.938 396.124 597.938 414.314V546.273H548.454V137.143C548.454 118.953 533.654 104.153 515.464 104.153C497.273 104.153 482.474 118.953 482.474 137.143V397.819H432.99V82.4742C432.99 64.2837 418.19 49.4845 400 49.4845C381.809 49.4845 367.01 64.2837 367.01 82.4742V397.819H317.526V137.143C317.526 118.953 302.727 104.153 284.536 104.153C266.346 104.153 251.546 118.953 251.546 137.143V397.819H202.062V196.995C202.062 178.804 187.263 164.005 169.072 164.005C150.882 164.005 136.082 178.804 136.082 196.995V583.918Z" fill="#9A46E4"/>
</g>
<path d="M608.008 731.937C622.481 737.696 638.246 740.901 654.75 740.995C658.146 750.359 660 760.463 660 771C660 819.601 620.601 859 572 859C535.444 859 504.094 836.709 490.801 804.979C491.532 804.991 492.265 805 493 805C543.855 805 587.726 775.108 608.008 731.937ZM218.77 572.054C262.986 573.275 301.85 595.915 325.357 629.972C285.658 643.043 257 680.424 257 724.5C257 759.377 274.945 790.061 302.104 807.827C278.68 827.884 248.256 840 215 840C140.994 840 81 780.006 81 706C81 653.424 111.279 607.921 155.35 585.976C161.549 587.939 168.151 589 175 589C191.859 589 207.219 582.581 218.77 572.054ZM446 724.5C446 743.798 439.891 761.668 429.504 776.285C397.451 755.535 376.193 719.534 376.003 678.554C377.743 679.292 379.444 680.131 381.099 681.068L385.449 683.533L387.913 679.182L392.345 671.357L394.809 667.006L390.458 664.542C386.344 662.212 382.019 660.323 377.554 658.891C378.685 652.005 380.417 645.321 382.695 638.896C392.387 641.858 401.379 646.42 409.365 652.275C406.812 660.575 405.496 669.244 405.496 678V683H427.106V678C427.106 675.354 427.267 672.719 427.582 670.108C439.135 685.183 446 704.04 446 724.5ZM618.676 696.386C632.095 704.798 643.083 716.729 650.347 730.887C636.82 730.308 623.882 727.464 611.9 722.721C615.058 714.329 617.352 705.515 618.676 696.386ZM610 678C610 678.878 609.988 679.754 609.969 680.627C598.292 675.715 585.463 673 572 673C566.037 673 560.198 673.533 554.529 674.553C543.414 656.505 537 635.252 537 612.5C537 611.806 537.008 611.113 537.02 610.422L538.01 608.675L540.474 604.324L537.411 602.59C538.275 592.156 540.49 582.106 543.882 572.614C553.345 577.192 562.098 583.007 569.931 589.849C567.982 597.209 566.982 604.821 566.982 612.5V617.5H588.734V612.5C588.734 611.92 588.744 611.341 588.759 610.762C602.141 629.785 610 652.974 610 678ZM572 683C585.317 683 597.942 685.958 609.256 691.253C608.464 698.279 607.05 705.116 605.069 711.709C597.197 707.318 588.553 704.551 579.646 703.541C572.62 697.681 566.284 691.025 560.775 683.709C564.451 683.241 568.197 683 572 683ZM214.386 607.002C197.077 607.109 180.099 611.752 165.146 620.469C150.192 629.185 137.784 641.67 129.161 656.678C120.538 671.685 116 688.691 116 706V711H139.228V706C139.228 692.752 142.701 679.736 149.301 668.25C155.901 656.764 165.397 647.207 176.843 640.536C188.288 633.865 201.283 630.312 214.53 630.229C227.778 630.147 240.815 633.54 252.342 640.068L256.692 642.532L259.156 638.182L265.676 626.672L268.14 622.321L263.789 619.856C248.728 611.326 231.694 606.895 214.386 607.002ZM214.448 617.002C228.337 616.916 242.029 620.084 254.438 626.219L252.846 629.031C240.929 623.172 227.793 620.147 214.468 620.229C199.472 620.323 184.762 624.346 171.807 631.897C158.851 639.449 148.102 650.265 140.631 663.268C133.992 674.821 130.15 687.743 129.376 701H126.144C126.921 687.178 130.912 673.702 137.832 661.659C145.584 648.168 156.738 636.944 170.182 629.108C183.625 621.273 198.888 617.099 214.448 617.002ZM417.791 659.281C418.244 659.707 418.692 660.137 419.136 660.571C418.174 664.646 417.549 668.803 417.271 673H415.658C415.958 668.362 416.674 663.771 417.791 659.281ZM356.5 635C362.114 635 367.607 635.518 372.935 636.507C370.704 642.961 368.98 649.651 367.809 656.529C363.945 655.886 360.019 655.57 356.072 655.595C354.053 655.607 352.041 655.71 350.041 655.898C347.525 649.12 344.514 642.582 341.051 636.329C346.069 635.456 351.232 635 356.5 635ZM492.52 600.498C504.398 600.424 516.112 603.081 526.765 608.237L525.969 609.642C515.563 604.623 504.126 602.035 492.529 602.107C479.261 602.19 466.245 605.75 454.781 612.432C443.318 619.114 433.807 628.685 427.196 640.189C425.378 643.354 423.797 646.635 422.46 650.004C422.035 649.627 421.606 649.255 421.175 648.886C422.495 645.629 424.037 642.454 425.8 639.387C432.551 627.638 442.264 617.865 453.971 611.041C465.678 604.217 478.969 600.582 492.52 600.498ZM493 561C507.682 561 521.732 563.705 534.68 568.643C531.322 577.891 528.994 587.634 527.839 597.733C516.707 592.902 504.66 590.422 492.457 590.498C477.159 590.593 462.153 594.697 448.936 602.401C435.718 610.105 424.751 621.14 417.129 634.405C415.602 637.063 414.222 639.792 412.988 642.579C405.171 637.178 396.543 632.867 387.323 629.866C403.417 622.824 415.043 607.474 416.774 589.236C437.25 571.637 463.883 561 493 561ZM367.5 545C389.315 545 407 562.685 407 584.5C407 584.517 406.999 584.535 406.999 584.552C395.403 595.229 385.8 608.036 378.81 622.354C375.226 623.423 371.431 624 367.5 624C345.685 624 328 606.315 328 584.5C328 562.685 345.685 545 367.5 545ZM399.472 607.695C399.284 607.953 399.094 608.209 398.9 608.462C399.09 608.206 399.28 607.95 399.472 607.695ZM578.341 597.966C578.842 598.5 579.34 599.039 579.831 599.583C579.384 602.199 579.072 604.842 578.898 607.5H577.143C577.347 604.294 577.749 601.11 578.341 597.966ZM367.282 549.407C361.147 549.445 355.129 551.091 349.828 554.181C344.527 557.27 340.129 561.697 337.072 567.017C334.016 572.336 332.406 578.364 332.406 584.5V589.5H346.642V584.5C346.642 580.853 347.597 577.27 349.414 574.108C351.231 570.946 353.845 568.316 356.996 566.479C360.147 564.643 363.723 563.664 367.37 563.642C371.017 563.619 374.606 564.553 377.779 566.351L382.13 568.814L384.595 564.464L386.682 560.778L389.146 556.428L384.795 553.964C379.456 550.94 373.418 549.369 367.282 549.407ZM655.013 533.983C667.069 533.909 678.957 536.612 689.765 541.854L688.9 543.381C678.361 538.288 666.773 535.663 655.023 535.736C641.603 535.82 628.438 539.42 616.843 546.179C605.248 552.937 595.627 562.618 588.94 574.255C586.401 578.674 584.319 583.316 582.713 588.109C582.255 587.652 581.792 587.199 581.327 586.749C582.93 582.131 584.965 577.654 587.42 573.382C594.259 561.479 604.1 551.577 615.96 544.664C627.82 537.751 641.285 534.069 655.013 533.983ZM200.416 572.786C192.814 576.755 184.169 579 175 579C174.107 579 173.22 578.978 172.338 578.936C181.311 575.924 190.708 573.837 200.416 572.786ZM175 469C205.376 469 230 493.624 230 524C230 538.741 224.2 552.126 214.759 562.001C193.347 562.036 173.032 566.746 154.777 575.162C134.408 567.104 120 547.235 120 524C120 493.624 144.624 469 175 469ZM174.717 478.426C166.749 478.475 158.933 480.612 152.049 484.625C145.165 488.638 139.453 494.385 135.483 501.294C131.514 508.203 129.425 516.032 129.425 524V529H145.134V524C145.134 518.779 146.503 513.648 149.104 509.121C151.706 504.594 155.449 500.827 159.96 498.197C164.471 495.568 169.593 494.167 174.814 494.135C180.036 494.102 185.175 495.439 189.719 498.013L194.069 500.477L196.533 496.126L199.347 491.158L201.812 486.808L197.461 484.343C190.528 480.416 182.685 478.376 174.717 478.426ZM484 771C484 730.018 512.014 695.58 549.937 685.789C554.348 692.131 559.316 698.056 564.77 703.494C555.286 704.51 546.095 707.516 537.811 712.345C527.556 718.322 519.047 726.884 513.134 737.176C507.22 747.468 504.108 759.13 504.108 771L504.107 776H522.958V771C522.958 762.426 525.206 754.002 529.478 746.567C533.749 739.133 539.896 732.948 547.304 728.63C554.711 724.312 563.121 722.012 571.695 721.959C580.269 721.906 588.708 724.102 596.169 728.327L598.117 729.43C579.082 768.263 539.164 795 493 795C491.08 795 489.171 794.952 487.273 794.86C485.141 787.272 484 779.269 484 771ZM267 724.5C267 683.965 293.947 649.725 330.903 638.714C334.403 644.729 337.448 651.04 339.99 657.603C333.633 659.171 327.505 661.644 321.8 664.969C311.392 671.035 302.756 679.724 296.754 690.17C290.752 700.616 287.594 712.453 287.594 724.5V729.5H306.587V724.5C306.587 715.773 308.874 707.199 313.222 699.633C317.569 692.066 323.825 685.771 331.364 681.377C335.807 678.787 340.604 676.912 345.581 675.796C347.817 685.503 349 695.614 349 706C349 743.029 333.979 776.549 309.7 800.802C284.084 785.056 267 756.774 267 724.5ZM456 724.5C456 698.817 446.268 675.409 430.293 657.757C431.701 653.396 433.565 649.176 435.866 645.171C441.606 635.182 449.864 626.873 459.817 621.071C469.77 615.27 481.071 612.179 492.591 612.107C504.111 612.036 515.449 614.987 525.474 620.664L527.327 621.714C528.747 641.749 534.759 660.514 544.318 676.965C503.674 688.91 474 726.489 474 771C474 778.875 474.93 786.533 476.685 793.871C462.93 791.952 449.942 787.64 438.153 781.372C449.402 765.252 456 745.647 456 724.5ZM359 706C359 695.214 357.811 684.706 355.562 674.597C355.772 674.593 355.981 674.589 356.19 674.588C359.505 674.567 362.799 674.877 366.026 675.505C366.01 676.335 366 677.166 366 678C366 722.372 388.756 761.429 423.233 784.138C406.845 802.464 383.02 814 356.5 814C343.06 814 330.312 811.036 318.873 805.729C343.724 779.852 359 744.71 359 706ZM620 678C620 647.1 608.963 618.779 590.618 596.76C592.102 590.643 594.448 584.741 597.61 579.237C603.426 569.116 611.794 560.697 621.879 554.818C631.964 548.94 643.413 545.809 655.086 545.736C666.759 545.664 678.246 548.653 688.403 554.405L692.754 556.869L695.218 552.519L701.01 542.292L703.474 537.941L699.123 535.478C685.657 527.851 670.427 523.887 654.951 523.983C639.475 524.079 624.294 528.231 610.924 536.024C597.553 543.818 586.46 554.981 578.75 568.399C576.67 572.019 574.858 575.77 573.317 579.62C565.486 573.219 556.877 567.734 547.652 563.33C566.331 522.426 607.596 494 655.5 494C720.946 494 774 547.054 774 612.5C774 675.959 724.118 727.765 661.425 730.853C652.772 711.609 638.09 695.662 619.784 685.419C619.926 682.964 620 680.49 620 678Z" stroke="white" stroke-opacity="0.68" stroke-width="10"/>
<path d="M175 454C213.66 454 245 485.34 245 524C245 536.528 241.706 548.287 235.941 558.46C265.65 562.639 292.545 575.579 313.932 594.583C313.32 591.315 313 587.945 313 584.5C313 554.4 337.4 530 367.5 530C391.96 530 412.657 546.114 419.554 568.306C440.551 554.219 465.815 546 493 546C508.016 546 522.446 548.51 535.896 553.129C557.748 509.192 603.098 479 655.5 479C729.23 479 789 538.77 789 612.5C789 680.748 737.787 737.032 671.695 745.024C673.851 753.323 675 762.027 675 771C675 827.885 628.885 874 572 874C528.514 874 491.322 847.051 476.214 808.942C460.846 806.992 446.302 802.398 433.053 795.633C413.971 816.159 386.736 829 356.5 829C340.592 829 325.515 825.443 312.019 819.085C285.95 841.47 252.056 855 215 855C132.71 855 66 788.29 66 706C66 653.521 93.1316 607.381 134.132 580.836C116.488 568.127 105 547.405 105 524C105 485.34 136.34 454 175 454Z" fill="#82ECFF" fill-opacity="0.82" stroke="#7ED4FF" stroke-width="20"/>
<circle cx="215" cy="706" r="139" fill="#82ECFF" fill-opacity="0.82"/>
<circle cx="215" cy="706" r="114" stroke="#74E5F9" stroke-opacity="0.5" stroke-width="50"/>
<mask id="path-7-inside-1_196_120" fill="white">
<path d="M121 706C121 689.565 125.309 673.418 133.497 659.168C141.684 644.919 153.465 633.065 167.664 624.789C181.862 616.513 197.983 612.104 214.417 612.002C230.851 611.9 247.025 616.108 261.325 624.208L254.806 635.717C242.518 628.758 228.62 625.142 214.499 625.229C200.377 625.317 186.525 629.105 174.325 636.217C162.124 643.328 152.001 653.514 144.966 665.759C137.93 678.003 134.228 691.878 134.228 706L121 706Z"/>
</mask>
<path d="M121 706C121 689.565 125.309 673.418 133.497 659.168C141.684 644.919 153.465 633.065 167.664 624.789C181.862 616.513 197.983 612.104 214.417 612.002C230.851 611.9 247.025 616.108 261.325 624.208L254.806 635.717C242.518 628.758 228.62 625.142 214.499 625.229C200.377 625.317 186.525 629.105 174.325 636.217C162.124 643.328 152.001 653.514 144.966 665.759C137.93 678.003 134.228 691.878 134.228 706L121 706Z" stroke="white" stroke-opacity="0.68" stroke-width="20" mask="url(#path-7-inside-1_196_120)"/>
<circle cx="356.5" cy="724.5" r="94.5" fill="#82ECFF" fill-opacity="0.82"/>
<circle cx="356.5" cy="724.5" r="69.5" stroke="#74E5F9" stroke-opacity="0.5" stroke-width="50"/>
<mask id="path-10-inside-2_196_120" fill="white">
<path d="M292.594 724.5C292.594 713.327 295.523 702.349 301.089 692.661C306.656 682.974 314.665 674.915 324.318 669.288C333.971 663.661 344.931 660.664 356.103 660.595C367.276 660.525 378.272 663.387 387.994 668.893L383.562 676.718C375.208 671.986 365.76 669.528 356.159 669.588C346.559 669.647 337.141 672.223 328.847 677.057C320.552 681.892 313.67 688.817 308.887 697.142C304.104 705.466 301.586 714.899 301.586 724.5L292.594 724.5Z"/>
</mask>
<path d="M292.594 724.5C292.594 713.327 295.523 702.349 301.089 692.661C306.656 682.974 314.665 674.915 324.318 669.288C333.971 663.661 344.931 660.664 356.103 660.595C367.276 660.525 378.272 663.387 387.994 668.893L383.562 676.718C375.208 671.986 365.76 669.528 356.159 669.588C346.559 669.647 337.141 672.223 328.847 677.057C320.552 681.892 313.67 688.817 308.887 697.142C304.104 705.466 301.586 714.899 301.586 724.5L292.594 724.5Z" stroke="white" stroke-opacity="0.68" stroke-width="20" mask="url(#path-10-inside-2_196_120)"/>
<circle cx="655.5" cy="612.5" r="123.5" fill="#82ECFF" fill-opacity="0.82"/>
<circle cx="655.5" cy="612.5" r="98.5" stroke="#74E5F9" stroke-opacity="0.5" stroke-width="50"/>
<mask id="path-13-inside-3_196_120" fill="white">
<path d="M571.982 612.5C571.982 597.898 575.81 583.551 583.085 570.891C590.36 558.23 600.827 547.698 613.442 540.345C626.057 532.991 640.38 529.074 654.982 528.984C669.583 528.893 683.954 532.632 696.659 539.828L690.867 550.055C679.95 543.871 667.602 540.658 655.055 540.736C642.508 540.814 630.201 544.18 619.361 550.498C608.521 556.817 599.526 565.867 593.275 576.746C587.024 587.625 583.735 599.953 583.735 612.5L571.982 612.5Z"/>
</mask>
<path d="M571.982 612.5C571.982 597.898 575.81 583.551 583.085 570.891C590.36 558.23 600.827 547.698 613.442 540.345C626.057 532.991 640.38 529.074 654.982 528.984C669.583 528.893 683.954 532.632 696.659 539.828L690.867 550.055C679.95 543.871 667.602 540.658 655.055 540.736C642.508 540.814 630.201 544.18 619.361 550.498C608.521 556.817 599.526 565.867 593.275 576.746C587.024 587.625 583.735 599.953 583.735 612.5L571.982 612.5Z" stroke="white" stroke-opacity="0.68" stroke-width="20" mask="url(#path-13-inside-3_196_120)"/>
<circle cx="493" cy="678" r="122" fill="#82ECFF" fill-opacity="0.82"/>
<circle cx="493" cy="678" r="97" stroke="#74E5F9" stroke-opacity="0.5" stroke-width="50"/>
<mask id="path-16-inside-4_196_120" fill="white">
<path d="M410.496 678C410.496 663.575 414.278 649.403 421.465 636.896C428.651 624.389 438.991 613.985 451.453 606.721C463.915 599.457 478.064 595.587 492.488 595.498C506.912 595.408 521.108 599.102 533.659 606.211L527.938 616.313C517.153 610.205 504.955 607.031 492.56 607.108C480.166 607.185 468.008 610.51 457.3 616.751C446.591 622.993 437.706 631.933 431.531 642.68C425.356 653.427 422.106 665.605 422.106 678L410.496 678Z"/>
</mask>
<path d="M410.496 678C410.496 663.575 414.278 649.403 421.465 636.896C428.651 624.389 438.991 613.985 451.453 606.721C463.915 599.457 478.064 595.587 492.488 595.498C506.912 595.408 521.108 599.102 533.659 606.211L527.938 616.313C517.153 610.205 504.955 607.031 492.56 607.108C480.166 607.185 468.008 610.51 457.3 616.751C446.591 622.993 437.706 631.933 431.531 642.68C425.356 653.427 422.106 665.605 422.106 678L410.496 678Z" stroke="white" stroke-opacity="0.68" stroke-width="20" mask="url(#path-16-inside-4_196_120)"/>
<circle cx="572" cy="771" r="93" fill="#82ECFF" fill-opacity="0.82"/>
<circle cx="572" cy="771" r="68" stroke="#74E5F9" stroke-opacity="0.5" stroke-width="50"/>
<mask id="path-19-inside-5_196_120" fill="white">
<path d="M509.108 771C509.108 760.004 511.991 749.201 517.469 739.667C522.947 730.133 530.829 722.202 540.329 716.664C549.829 711.127 560.614 708.177 571.61 708.109C582.605 708.041 593.427 710.857 602.994 716.276L598.633 723.976C590.411 719.32 581.113 716.901 571.665 716.959C562.216 717.018 552.949 719.553 544.786 724.311C536.623 729.069 529.85 735.884 525.143 744.076C520.435 752.268 517.958 761.552 517.958 771L509.108 771Z"/>
</mask>
<path d="M509.108 771C509.108 760.004 511.991 749.201 517.469 739.667C522.947 730.133 530.829 722.202 540.329 716.664C549.829 711.127 560.614 708.177 571.61 708.109C582.605 708.041 593.427 710.857 602.994 716.276L598.633 723.976C590.411 719.32 581.113 716.901 571.665 716.959C562.216 717.018 552.949 719.553 544.786 724.311C536.623 729.069 529.85 735.884 525.143 744.076C520.435 752.268 517.958 761.552 517.958 771L509.108 771Z" stroke="white" stroke-opacity="0.68" stroke-width="20" mask="url(#path-19-inside-5_196_120)"/>
<circle cx="175" cy="524" r="60" fill="#82ECFF" fill-opacity="0.82"/>
<circle cx="175" cy="524" r="35" stroke="#74E5F9" stroke-opacity="0.5" stroke-width="50"/>
<mask id="path-22-inside-6_196_120" fill="white">
<path d="M134.424 524C134.424 516.906 136.284 509.936 139.819 503.785C143.353 497.634 148.438 492.517 154.567 488.945C160.696 485.372 167.654 483.469 174.748 483.425C181.842 483.381 188.824 485.198 194.996 488.694L192.182 493.662C186.878 490.658 180.879 489.097 174.784 489.135C168.688 489.173 162.709 490.808 157.442 493.878C152.176 496.947 147.806 501.344 144.769 506.63C141.732 511.915 140.134 517.904 140.134 524L134.424 524Z"/>
</mask>
<path d="M134.424 524C134.424 516.906 136.284 509.936 139.819 503.785C143.353 497.634 148.438 492.517 154.567 488.945C160.696 485.372 167.654 483.469 174.748 483.425C181.842 483.381 188.824 485.198 194.996 488.694L192.182 493.662C186.878 490.658 180.879 489.097 174.784 489.135C168.688 489.173 162.709 490.808 157.442 493.878C152.176 496.947 147.806 501.344 144.769 506.63C141.732 511.915 140.134 517.904 140.134 524L134.424 524Z" stroke="white" stroke-opacity="0.68" stroke-width="20" mask="url(#path-22-inside-6_196_120)"/>
<circle cx="367.5" cy="584.5" r="44.5" fill="#82ECFF" fill-opacity="0.82"/>
<circle cx="367.5" cy="584.5" r="25" stroke="#74E5F9" stroke-opacity="0.5" stroke-width="39"/>
<mask id="path-25-inside-7_196_120" fill="white">
<path d="M337.406 584.5C337.406 579.239 338.786 574.069 341.407 569.507C344.028 564.945 347.8 561.15 352.346 558.501C356.891 555.851 362.052 554.44 367.313 554.407C372.575 554.374 377.752 555.722 382.331 558.315L380.244 561.999C376.31 559.771 371.86 558.614 367.34 558.642C362.819 558.67 358.384 559.883 354.478 562.159C350.572 564.436 347.331 567.697 345.079 571.617C342.827 575.537 341.641 579.979 341.641 584.5L337.406 584.5Z"/>
</mask>
<path d="M337.406 584.5C337.406 579.239 338.786 574.069 341.407 569.507C344.028 564.945 347.8 561.15 352.346 558.501C356.891 555.851 362.052 554.44 367.313 554.407C372.575 554.374 377.752 555.722 382.331 558.315L380.244 561.999C376.31 559.771 371.86 558.614 367.34 558.642C362.819 558.67 358.384 559.883 354.478 562.159C350.572 564.436 347.331 567.697 345.079 571.617C342.827 575.537 341.641 579.979 341.641 584.5L337.406 584.5Z" stroke="white" stroke-opacity="0.68" stroke-width="20" mask="url(#path-25-inside-7_196_120)"/>
<defs>
<clipPath id="clip0_196_120">
<rect width="800" height="800" fill="white" transform="matrix(-1 0 0 1 800 0)"/>
</clipPath>
</defs>
</svg>
