<svg width="932" height="1071" viewBox="0 0 932 1071" fill="none" xmlns="http://www.w3.org/2000/svg">
<path fill-rule="evenodd" clip-rule="evenodd" d="M736.5 1066.5H643.001V1049.5H633V699H321.501H312.5V1010L197.5 1006.5L197.5 214.5H155.001V159.5H207.5V137H177V28.5H144.5V12.5H269.5V208L655 208V169.5H756.5V192H737.5L736.5 1066.5ZM555 337L555 633H548.5V584.5H407L407 633H374.501V624H388.501L388.501 596H374.501V337L555 337ZM629.5 305V327H590V305H629.5ZM629.5 609V633H590V609H629.5ZM338 609V635.5H300V609H338ZM338 305V327H300V305H338Z" fill="#EDEDED"/>
<path d="M548.5 576V480.5L382.5 480.5L380 551H398V576H548.5Z" fill="#EDEDED"/>
<path d="M548.5 471L548.5 342.5L380 342.5V471L548.5 471Z" fill="#EDEDED"/>
<path d="M386.5 713H454L454 902L328 902L326 724.5H386.5V713Z" fill="#EDEDED"/>
<path d="M601.5 882V794V783H621.5V713H476.5L474.5 771.5H466.5L466.5 882H601.5Z" fill="#EDEDED"/>
<path d="M745 1000V939L836.5 889.5H905V931.5H919V1049.5H780.5V1000H745Z" fill="#EDEDED"/>
<path d="M745 584.5H822.5V609L843 661H919V794H773V766H745V584.5Z" fill="#EDEDED"/>
<path d="M745 354.5H843V375.5L869.5 436H928V568H773V539H745L745 354.5Z" fill="#EDEDED"/>
<path d="M745 312V201.5H919V305H906.5V327H919V342.5H773V312H745Z" fill="#EDEDED"/>
<path d="M830 861.5L834.5 882L773 914.5H745V839L767.5 824.5L773 804H830V861.5Z" fill="#EDEDED"/>
<path d="M852 876H906.5V811H852V876Z" fill="#EDEDED"/>
<path d="M852 654.5H906.5L905 590.5H834.5L835.5 609L852 654.5Z" fill="#EDEDED"/>
<path d="M861.5 386.5L879.5 427.5H928V361H852V375.5L861.5 386.5Z" fill="#EDEDED"/>
<path d="M849 186.5H919V120H849V181V186.5Z" fill="#EDEDED"/>
<path d="M852 97.5V28.5H919V97.5H852Z" fill="#EDEDED"/>
<path d="M835.5 181H773V159.5H655V12.5H835.5V181Z" fill="#EDEDED"/>
<path d="M609.501 192V169.5H643.001L644.912 88.5H584.001L537.001 49V12.5H470.001V192H609.501Z" fill="#EDEDED"/>
<path d="M629.5 76H596.5L555 49V12.5H609.501V28.5H629.5V76Z" fill="#EDEDED"/>
<path d="M453.501 192H321.501V168.5H289.501V88.5H332.501L388.501 49V12.5H457.5L453.501 192Z" fill="#EDEDED"/>
<path d="M374.501 42L332.501 76H289.501V28.5H332.501V12.5H374.501V42Z" fill="#EDEDED"/>
<path d="M136.001 176.5V145H165.001V42H136.001V4H23.0007V28.5H4.00067V168.5H23.0007V176.5L131.501 181L136.001 176.5Z" fill="#EDEDED"/>
<path d="M165.001 350H23.0007V305H4.00067V192H136.001V226.5H185.001V320.5H165.001V350Z" fill="#EDEDED"/>
<path d="M155.001 517.5V481H185.001V386.5H155.001V361H4.00067V510H23.0007V517.5H155.001Z" fill="#EDEDED"/>
<path d="M165.001 685.5H23.0007L4.00067 683.5L4.00067 530H155.001V568H192.001L192.001 661H165.001V685.5Z" fill="#EDEDED"/>
<path d="M155.001 861.5V828H185.001V729.5H165.001V699H14.0007L9.50067 856H33.0007V861.5H155.001Z" fill="#EDEDED"/>
<path d="M905 654.5H906.5M906.5 654.5L905 590.5H834.5L835.5 609L852 654.5H906.5ZM155.001 861.5V828H185.001V729.5H165.001V699H14.0007L9.50067 856H33.0007V861.5H155.001ZM165.001 685.5H23.0007L4.00067 683.5L4.00067 530H155.001V568H192.001L192.001 661H165.001V685.5ZM155.001 517.5V481H185.001V386.5H155.001V361H4.00067V510H23.0007V517.5H155.001ZM165.001 350H23.0007V305H4.00067V192H136.001V226.5H185.001V320.5H165.001V350ZM136.001 176.5V145H165.001V42H136.001V4H23.0007V28.5H4.00067V168.5H23.0007V176.5L131.501 181L136.001 176.5ZM609.501 192V169.5H643.001L644.912 88.5H584.001L537.001 49V12.5H470.001V192H609.501ZM453.501 192H321.501V168.5H289.501V88.5H332.501L388.501 49V12.5H457.5L453.501 192ZM374.501 42L332.501 76H289.501V28.5H332.501V12.5H374.501V42ZM629.5 76H596.5L555 49V12.5H609.501V28.5H629.5V76ZM835.5 181H773V159.5H655V12.5H835.5V181ZM852 97.5V28.5H919V97.5H852ZM745 312V201.5H919V305H906.5V327H919V342.5H773V312H745ZM745 354.5H843V375.5L869.5 436H928V568H773V539H745L745 354.5ZM745 584.5H822.5V609L843 661H919V794H773V766H745V584.5ZM745 1000V939L836.5 889.5H905V931.5H919V1049.5H780.5V1000H745ZM601.5 882V794V783H621.5V713H476.5L474.5 771.5H466.5L466.5 882H601.5ZM386.5 713H454L454 902L328 902L326 724.5H386.5V713ZM548.5 576V480.5L382.5 480.5L380 551H398V576H548.5ZM548.5 471L548.5 342.5L380 342.5V471L548.5 471ZM736.5 1066.5H643.001V1049.5H633V699H321.501H312.5V1010L197.5 1006.5L197.5 214.5H155.001V159.5H207.5V137H177V28.5H144.5V12.5H269.5V208L655 208V169.5H756.5V192H737.5L736.5 1066.5ZM555 633L555 337L374.501 337V596H388.501L388.501 624H374.501V633H407L407 584.5H548.5V633H555ZM629.5 327V305H590V327H629.5ZM629.5 633V609H590V633H629.5ZM338 635.5V609H300V635.5H338ZM338 327V305H300V327H338ZM830 861.5V804H773L767.5 824.5L745 839V914.5H773L834.5 882L830 861.5ZM906.5 876H852V811H906.5V876ZM879.5 427.5L861.5 386.5L852 375.5V361H928V427.5H879.5ZM849 186.5H919V120H849V181V186.5Z" stroke="#C3C3C3" stroke-width="8"/>
</svg>
