<svg width="927" height="1119" viewBox="0 0 927 1119" fill="none" xmlns="http://www.w3.org/2000/svg">
<path d="M10 14.5V173.5H138V142.5H166.5V30.5H146V4H28V14.5H10Z" fill="#EDEDED"/>
<path d="M10 191V282H28V319H10V351.5H166.5V319H193V226.5H138V191H10Z" fill="#EDEDED"/>
<path d="M10 359.5V511.5V520H157.5V481.5H193V388H166.5V359.5H10Z" fill="#EDEDED"/>
<path d="M193 573V658H166.5V686H4V618H28V593.5H10V536H157.5V573H193Z" fill="#EDEDED"/>
<path d="M193 828L98.5 780.5H10V881H28V924.5H10V939.5H157.5V899.5H193V834.5V828Z" fill="#EDEDED"/>
<path d="M98.5 701H166.5V733H193V808L98.5 770V701Z" fill="#EDEDED"/>
<path d="M28 711.5V770H87V711.5H28Z" fill="#EDEDED"/>
<path fill-rule="evenodd" clip-rule="evenodd" d="M638.5 954.5H706.5V891.5H807V820H727.5V559H761V493H727.5V217.5H783V155H706.5H649V179.5H282V4H157.5V22.5H183V142.5H216.5V155H146V217.5H200V493H166.5V559H200V1115H275V1071.5H295V998.5H275V939.5H303V674.5H636.5L638.5 954.5ZM295 618V593.5H328V618H295ZM607.5 618V593.5H649V618H607.5ZM607.5 329.5V295H638.5V329.5H607.5ZM295 319V289H328V319H295ZM539 618H556.5V612.5H546.5V580H556.5V573V547.5H573L576.5 319H363V616.5L372 618V568.5H539V618Z" fill="#EDEDED"/>
<path d="M469 686V808H627V711.5H586.5V686H469Z" fill="#EDEDED"/>
<path d="M328 686V795.5H310V868H363V828H454V808V755H463V686H328Z" fill="#EDEDED"/>
<path d="M627 834.5H469V899.5H586.5V881H627V834.5Z" fill="#EDEDED"/>
<path d="M922.5 686V618H911V593.5H922.5V536H768V566H740V658H768V686H922.5Z" fill="#EDEDED"/>
<path d="M768 359.5V388H740V481.5H775V520H922.5V370H903V359.5H768Z" fill="#EDEDED"/>
<path d="M792 191V226.5H740V319H768V351.5H922.5V319H911V289H922.5V191H792Z" fill="#EDEDED"/>
<path d="M761 30.5V142.5H792V179.5H922.5V22.5H903V4H792V30.5H768H761Z" fill="#EDEDED"/>
<path d="M300.5 22.5V142.5H328V173.5H424V142.5H462V4H328V22.5H300.5Z" fill="#EDEDED"/>
<path d="M479.5 4V22.5H472.5V142.5H509.5V173.5H607.5V142.5H636.5V14.5H607.5V4H479.5Z" fill="#EDEDED"/>
<path d="M372 472.5V562H539V539H565V472.5H372Z" fill="#EDEDED"/>
<path d="M372 329.5V455H565V329.5H372Z" fill="#EDEDED"/>
<path d="M649 4V155H706.5V142.5H748.5V4H649Z" fill="#EDEDED"/>
<path d="M649 155V179.5H282V4H157.5V22.5H183V142.5H216.5V155H146V217.5H200V493H166.5V559H200V1115H275V1071.5H295V998.5H275V939.5H303V674.5H636.5L638.5 954.5H706.5V891.5H807V820H727.5V559H761V493H727.5V217.5H783V155H706.5M649 155V4H748.5V142.5H706.5V155M649 155H706.5M193 828L98.5 780.5H10V881H28V924.5H10V939.5H157.5V899.5H193V834.5V828ZM193 573V658H166.5V686H4V618H28V593.5H10V536H157.5V573H193ZM98.5 701H166.5V733H193V808L98.5 770V701ZM28 711.5V770H87V711.5H28ZM10 359.5V511.5V520H157.5V481.5H193V388H166.5V359.5H10ZM10 191V282H28V319H10V351.5H166.5V319H193V226.5H138V191H10ZM10 14.5V173.5H138V142.5H166.5V30.5H146V4H28V14.5H10ZM300.5 22.5V142.5H328V173.5H424V142.5H462V4H328V22.5H300.5ZM479.5 4V22.5H472.5V142.5H509.5V173.5H607.5V142.5H636.5V14.5H607.5V4H479.5ZM761 30.5V142.5H792V179.5H922.5V22.5H903V4H792V30.5H768H761ZM792 191V226.5H740V319H768V351.5H922.5V319H911V289H922.5V191H792ZM768 359.5V388H740V481.5H775V520H922.5V370H903V359.5H768ZM922.5 686V618H911V593.5H922.5V536H768V566H740V658H768V686H922.5ZM372 472.5V562H539V539H565V472.5H372ZM372 329.5V455H565V329.5H372ZM328 686V795.5H310V868H363V828H454V808V755H463V686H328ZM469 686V808H627V711.5H586.5V686H469ZM627 834.5H469V899.5H586.5V881H627V834.5ZM295 593.5V618H328V593.5H295ZM607.5 593.5V618H649V593.5H607.5ZM607.5 295V329.5H638.5V295H607.5ZM295 289V319H328V289H295ZM556.5 618H539V568.5H372V618L363 616.5V319H576.5L573 547.5H556.5V573V580H546.5V612.5H556.5V618Z" stroke="#C3C3C3" stroke-width="8"/>
</svg>
