<svg width="1040" height="1141" viewBox="0 0 1040 1141" fill="none" xmlns="http://www.w3.org/2000/svg">
<path d="M188.5 576.5V674.5H160.5V704H4V643.5H30.5V604.5H4V544H160.5V576.5H188.5Z" fill="#EDEDED"/>
<path d="M595 831H426V896.5H441.5V932H595V831Z" fill="#EDEDED"/>
<path d="M511 713H595V814H500.5V713H511Z" fill="#EDEDED"/>
<path d="M441.5 713H294V814H483.5V722.5H441.5V713Z" fill="#EDEDED"/>
<path d="M294 831H405.5V896.5H294V831Z" fill="#EDEDED"/>
<path d="M371.5 493V558H405.5V576.5H557.5V493H371.5Z" fill="#EDEDED"/>
<path d="M415 359.5H385.5V479H557.5V350H415V359.5Z" fill="#EDEDED"/>
<path d="M188.5 401.5V493H160.5V530H4V373.5H160.5V401.5H188.5Z" fill="#EDEDED"/>
<path d="M188.5 240V331.5H160.5V359.5H30.5V305H4V203H136V240H188.5Z" fill="#EDEDED"/>
<path d="M160.5 150H136V184H4V37H30.5V15H136V37H170V150H160.5Z" fill="#EDEDED"/>
<path d="M511 184V150H472.5V15H607.5V29H626V15H652.5L644.5 159.5H618V184H511Z" fill="#EDEDED"/>
<path fill-rule="evenodd" clip-rule="evenodd" d="M711.5 1136.5H644.5V992.5H618V1001.5H277V992.5H263V1088.5H204V567.5H170V504H204V224.5L153 223V159.5H213.5V150H179V37V29H160.5V15H277V193.5H661.5V15H776.5V29H751.5V139H723.5V150H776.5V203H733V504H768.5V558H733V865H776.5V1064H810.5V1088.5H711.5V1136.5ZM277 694.5H606V896.5H635.5V952H263V932H277V694.5ZM567 341H371.5H362.5V576.5H396.5V623H371.5V643.5H405.5V590.5H557.5V643.5H567V341ZM607.5 305H635.5V350H607.5V305ZM635.5 590.5H606V643.5H635.5V590.5ZM294 612.5H317.5H342V643.5H294V612.5ZM306.5 341V305H333V341H306.5Z" fill="#EDEDED"/>
<path d="M426 184H317.5V150H294V29H333V4H460V150H426V184Z" fill="#EDEDED"/>
<path d="M793.5 37V15H891.5H908.5V29H930V173.5H793.5V139H768.5V37H793.5Z" fill="#EDEDED"/>
<path d="M793.5 184H930V203H941V282H930V313H908.5V350H930V359.5H776.5V331.5H742.5L751.5 224.5H793.5V184Z" fill="#EDEDED"/>
<path d="M908.5 373.5H776.5V401.5H751.5V493H776.5V530H930V373.5H908.5Z" fill="#EDEDED"/>
<path d="M916 545.5H776.5V576.5H751.5V685.5H776.5V713H930V643.5H908.5V612.5H930V545.5H916Z" fill="#EDEDED"/>
<path d="M930 735H916V722.5H776.5V755H751.5V856H793.5V887H930V735Z" fill="#EDEDED"/>
<path d="M883.5 952V1051.5H930V1088.5H1035.5V922.5H941V952H883.5Z" fill="#EDEDED"/>
<path d="M793.5 905.5V978.5V1051.5H866.5V905.5H793.5Z" fill="#EDEDED"/>
<path d="M883.5 1064H916V1122.5H854V1088.5H835.5V1064H883.5Z" fill="#EDEDED"/>
<path d="M188.5 576.5V674.5H160.5V704H4V643.5H30.5V604.5H4V544H160.5V576.5H188.5Z" stroke="#C3C3C3" stroke-width="8"/>
<path d="M595 831H426V896.5H441.5V932H595V831Z" stroke="#C3C3C3" stroke-width="8"/>
<path d="M511 713H595V814H500.5V713H511Z" stroke="#C3C3C3" stroke-width="8"/>
<path d="M441.5 713H294V814H483.5V722.5H441.5V713Z" stroke="#C3C3C3" stroke-width="8"/>
<path d="M294 831H405.5V896.5H294V831Z" stroke="#C3C3C3" stroke-width="8"/>
<path d="M371.5 493V558H405.5V576.5H557.5V493H371.5Z" stroke="#C3C3C3" stroke-width="8"/>
<path d="M415 359.5H385.5V479H557.5V350H415V359.5Z" stroke="#C3C3C3" stroke-width="8"/>
<path d="M188.5 401.5V493H160.5V530H4V373.5H160.5V401.5H188.5Z" stroke="#C3C3C3" stroke-width="8"/>
<path d="M188.5 240V331.5H160.5V359.5H30.5V305H4V203H136V240H188.5Z" stroke="#C3C3C3" stroke-width="8"/>
<path d="M160.5 150H136V184H4V37H30.5V15H136V37H170V150H160.5Z" stroke="#C3C3C3" stroke-width="8"/>
<path d="M511 184V150H472.5V15H607.5V29H626V15H652.5L644.5 159.5H618V184H511Z" stroke="#C3C3C3" stroke-width="8"/>
<path fill-rule="evenodd" clip-rule="evenodd" d="M711.5 1136.5H644.5V992.5H618V1001.5H277V992.5H263V1088.5H204V567.5H170V504H204V224.5L153 223V159.5H213.5V150H179V37V29H160.5V15H277V193.5H661.5V15H776.5V29H751.5V139H723.5V150H776.5V203H733V504H768.5V558H733V865H776.5V1064H810.5V1088.5H711.5V1136.5ZM277 694.5H606V896.5H635.5V952H263V932H277V694.5ZM567 341H371.5H362.5V576.5H396.5V623H371.5V643.5H405.5V590.5H557.5V643.5H567V341ZM607.5 305H635.5V350H607.5V305ZM635.5 590.5H606V643.5H635.5V590.5ZM294 612.5H317.5H342V643.5H294V612.5ZM306.5 341V305H333V341H306.5Z" stroke="#C3C3C3" stroke-width="8"/>
<path d="M426 184H317.5V150H294V29H333V4H460V150H426V184Z" stroke="#C3C3C3" stroke-width="8"/>
<path d="M793.5 37V15H891.5H908.5V29H930V173.5H793.5V139H768.5V37H793.5Z" stroke="#C3C3C3" stroke-width="8"/>
<path d="M793.5 184H930V203H941V282H930V313H908.5V350H930V359.5H776.5V331.5H742.5L751.5 224.5H793.5V184Z" stroke="#C3C3C3" stroke-width="8"/>
<path d="M908.5 373.5H776.5V401.5H751.5V493H776.5V530H930V373.5H908.5Z" stroke="#C3C3C3" stroke-width="8"/>
<path d="M916 545.5H776.5V576.5H751.5V685.5H776.5V713H930V643.5H908.5V612.5H930V545.5H916Z" stroke="#C3C3C3" stroke-width="8"/>
<path d="M930 735H916V722.5H776.5V755H751.5V856H793.5V887H930V735Z" stroke="#C3C3C3" stroke-width="8"/>
<path d="M883.5 952V1051.5H930V1088.5H1035.5V922.5H941V952H883.5Z" stroke="#C3C3C3" stroke-width="8"/>
<path d="M793.5 905.5V978.5V1051.5H866.5V905.5H793.5Z" stroke="#C3C3C3" stroke-width="8"/>
<path d="M883.5 1064H916V1122.5H854V1088.5H835.5V1064H883.5Z" stroke="#C3C3C3" stroke-width="8"/>
</svg>
