<svg width="907" height="727" viewBox="0 0 907 727" fill="none" xmlns="http://www.w3.org/2000/svg">
<path d="M109 173.293H212V104.58H189.5H157.5L109 127.983V173.293Z" fill="#EDEDED" stroke="#C3C3C3" stroke-width="8"/>
<path d="M4 3.99998H212.5L212.5 98.1073H161L104.5 124.995V136.945H4V3.99998Z" fill="#EDEDED"/>
<path fill-rule="evenodd" clip-rule="evenodd" d="M690 717.523H618.5V687.15H579.5V638.851H618.5V598.519H569.5V602.005H379V641.341H336V598.519H289V639.349H328V685.656H289V723L217 723L217 31.8836L280.5 31.8836V50.8047H324V129.974H280.5V241.011L690 241.011L690 717.523ZM569.5 392.379V549.723H563.5V516.362H465V538.769H459.5V516.362H377V542.254H372V516.362H342.5V549.723H336L336 392.379H342.5V431.715H396V392.379H403V431.715H440V392.379L569.5 392.379Z" fill="#EDEDED"/>
<path d="M4 3.99998H212.5L212.5 98.1073H161L104.5 124.995V136.945H4V3.99998Z" stroke="#C3C3C3" stroke-width="8"/>
<path fill-rule="evenodd" clip-rule="evenodd" d="M690 717.523H618.5V687.15H579.5V638.851H618.5V598.519H569.5V602.005H379V641.341H336V598.519H289V639.349H328V685.656H289V723L217 723L217 31.8836L280.5 31.8836V50.8047H324V129.974H280.5V241.011L690 241.011L690 717.523ZM569.5 392.379V549.723H563.5V516.362H465V538.769H459.5V516.362H377V542.254H372V516.362H342.5V549.723H336L336 392.379H342.5V431.715H396V392.379H403V431.715H440V392.379L569.5 392.379Z" stroke="#C3C3C3" stroke-width="8"/>
<path d="M442 694.618H573.5V608.478H383V653.291H442V694.618Z" fill="#EDEDED" stroke="#C3C3C3" stroke-width="8"/>
<path d="M445 510.885H565.5V398.853H445V510.885Z" fill="#EDEDED" stroke="#C3C3C3" stroke-width="8"/>
<path d="M342.5 510.387H440.5V436.695H342.5V510.387Z" fill="#EDEDED" stroke="#C3C3C3" stroke-width="8"/>
<path d="M795 497.441H902.5V631.382H755.5V529.806L795 508.893V497.441Z" fill="#EDEDED" stroke="#C3C3C3" stroke-width="8"/>
<path d="M697 532.794H748.5V630.884H697V532.794Z" fill="#EDEDED" stroke="#C3C3C3" stroke-width="8"/>
<path d="M752.5 526.818L790.5 506.901V461.093H697V526.818H752.5Z" fill="#EDEDED" stroke="#C3C3C3" stroke-width="8"/>
<path d="M795.5 359.516H903V493.458H795.5V456.113H696.5V391.881H756L795.5 370.969V359.516Z" fill="#EDEDED" stroke="#C3C3C3" stroke-width="8"/>
<path d="M753 388.894L791 368.977V323.168H697.5V388.894H753Z" fill="#EDEDED" stroke="#C3C3C3" stroke-width="8"/>
<path d="M795.5 222.09H903V356.031H795.5V318.687H696.5V254.455L756 254.455L795.5 233.542V222.09Z" fill="#EDEDED" stroke="#C3C3C3" stroke-width="8"/>
<path d="M753 251.467L791 231.55V185.742H697.5V251.467H753Z" fill="#EDEDED" stroke="#C3C3C3" stroke-width="8"/>
<path d="M114 275.368H6.5L6.5 143.418H104V182.754L213 180.763V243.003L153.5 243.003L114 263.916V275.368Z" fill="#EDEDED" stroke="#C3C3C3" stroke-width="8"/>
<path d="M157.5 247.982L117 267.899L117 310.222H213V247.982H157.5Z" fill="#EDEDED" stroke="#C3C3C3" stroke-width="8"/>
<path d="M114 409.807H6.5L6.5 279.849L114 279.849V317.011L213 315.202V377.442H153.5L114 398.355V409.807Z" fill="#EDEDED" stroke="#C3C3C3" stroke-width="8"/>
<path d="M157.5 382.421L117 402.338L117 444.661H213V382.421H157.5Z" fill="#EDEDED" stroke="#C3C3C3" stroke-width="8"/>
<path d="M114 544.246H6.5L6.5 414.288L114 414.288V451.45L213 449.641V511.881H153.5L114 532.794V544.246Z" fill="#EDEDED" stroke="#C3C3C3" stroke-width="8"/>
<path d="M157.5 516.86L117 536.777L117 579.101H213V516.86H157.5Z" fill="#EDEDED" stroke="#C3C3C3" stroke-width="8"/>
<path d="M795.5 211.634H890V165.327V150.389H864.5H836.5L832.5 145.41L795.5 165.327V211.634Z" fill="#EDEDED"/>
<path d="M630 179.767L610 140.929L564 140.929V235.036H624V184.248L630 179.767Z" fill="#EDEDED"/>
<path d="M795.5 211.634H890V165.327V150.389H864.5H836.5L832.5 145.41L795.5 165.327V211.634Z" stroke="#C3C3C3" stroke-width="8"/>
<path d="M630 179.767L610 140.929L564 140.929V235.036H624V184.248L630 179.767Z" stroke="#C3C3C3" stroke-width="8"/>
<path d="M496 180.265L476 141.427H430V235.534H490V184.746L496 180.265Z" fill="#EDEDED" stroke="#C3C3C3" stroke-width="8"/>
<path d="M834.5 139.933H849.5V28.896L598.5 28.896V136.945H612.5L635.5 181.26L630 184.248V211.136V236.032H691V178.771L790.5 178.771V163.335L834.5 139.933Z" fill="#EDEDED" stroke="#C3C3C3" stroke-width="8"/>
<path d="M558.5 136.448H592.5V30.3902L463.5 30.3902V136.448H477.5L501.5 181.759L496 184.746V235.534H558.5V136.448Z" fill="#EDEDED" stroke="#C3C3C3" stroke-width="8"/>
<path d="M362.5 180.265L342.5 141.427H296.5V235.534H356.5V184.746L362.5 180.265Z" fill="#EDEDED" stroke="#C3C3C3" stroke-width="8"/>
<path d="M425 136.448H459V30.3902L330 30.3902V136.448H344L368 181.759L362.5 184.746V235.534H425V136.448Z" fill="#EDEDED" stroke="#C3C3C3" stroke-width="8"/>
<path d="M211.5 4L6 4" stroke="#C3C3C3" stroke-width="8"/>
<path d="M118.5 713.042H212L212 586.569H112.5V547.731H6L6 678.685H118.5V713.042Z" fill="#EDEDED" stroke="#C3C3C3" stroke-width="8"/>
</svg>
