<svg width="907" height="813" viewBox="0 0 907 813" fill="none" xmlns="http://www.w3.org/2000/svg">
<path d="M109 219.331L212 219.331V150.603H189.5H157.5L109 174.01L109 219.331Z" fill="#EDEDED" stroke="#C3C3C3" stroke-width="8"/>
<path d="M4 50.0006H212.5V144.128H161L104.5 171.022V182.975H4V50.0006Z" fill="#EDEDED"/>
<path fill-rule="evenodd" clip-rule="evenodd" d="M690 763.678H618.5V733.298H579.5V684.989H618.5V644.649H569.5V648.135H379V687.479L336 687.479V644.649H289V685.487H328V746.247H289V769.156H217L217 77.8903H280.5V96.8155H324V176.002H280.5V287.063L690 287.063L690 763.678ZM569.5 438.464V595.842H563.5V562.474H465V584.885H459.5V562.474H377V588.371H372V562.474H342.5V595.842H336V438.464H342.5V477.809H396V438.464H403V477.809H440V438.464L569.5 438.464Z" fill="#EDEDED"/>
<path d="M4 50.0006H212.5V144.128H161L104.5 171.022V182.975H4V50.0006Z" stroke="#C3C3C3" stroke-width="8"/>
<path fill-rule="evenodd" clip-rule="evenodd" d="M690 763.678H618.5V733.298H579.5V684.989H618.5V644.649H569.5V648.135H379V687.479L336 687.479V644.649H289V685.487H328V746.247H289V769.156H217L217 77.8903H280.5V96.8155H324V176.002H280.5V287.063L690 287.063L690 763.678ZM569.5 438.464V595.842H563.5V562.474H465V584.885H459.5V562.474H377V588.371H372V562.474H342.5V595.842H336V438.464H342.5V477.809H396V438.464H403V477.809H440V438.464L569.5 438.464Z" stroke="#C3C3C3" stroke-width="8"/>
<path d="M442 740.769H573.5V654.61H383V699.433H442V740.769Z" fill="#EDEDED" stroke="#C3C3C3" stroke-width="8"/>
<path d="M445 556.996H565.5V444.939H445V556.996Z" fill="#EDEDED" stroke="#C3C3C3" stroke-width="8"/>
<path d="M342.5 556.498H440.5V482.789H342.5V556.498Z" fill="#EDEDED" stroke="#C3C3C3" stroke-width="8"/>
<path d="M795 543.548H902.5V677.519H755.5V575.92L795 555.003V543.548Z" fill="#EDEDED" stroke="#C3C3C3" stroke-width="8"/>
<path d="M697 578.909H748.5V677.021H697V578.909Z" fill="#EDEDED" stroke="#C3C3C3" stroke-width="8"/>
<path d="M752.5 572.933L790.5 553.011V507.193H697V572.933H752.5Z" fill="#EDEDED" stroke="#C3C3C3" stroke-width="8"/>
<path d="M795.5 405.594H903V539.564H795.5V502.212L696.5 502.212V437.966L756 437.966L795.5 417.049V405.594Z" fill="#EDEDED" stroke="#C3C3C3" stroke-width="8"/>
<path d="M753 434.978L791 415.057V369.238H697.5V434.978H753Z" fill="#EDEDED" stroke="#C3C3C3" stroke-width="8"/>
<path d="M795.5 268.138H903V402.108H795.5V364.756L696.5 364.756V300.51L756 300.51L795.5 279.593V268.138Z" fill="#EDEDED" stroke="#C3C3C3" stroke-width="8"/>
<path d="M753 297.521L791 277.6V231.781H697.5V297.521H753Z" fill="#EDEDED" stroke="#C3C3C3" stroke-width="8"/>
<path d="M783 69.2941L763.909 114L720 114L720 4L783 3.99999L783 69.2941Z" fill="#EDEDED" stroke="#C3C3C3" stroke-width="8"/>
<path d="M114 321.427H6.5L6.5 189.449L104 189.449L104 228.794L213 226.801L213 289.055L153.5 289.055L114 309.973V321.427Z" fill="#EDEDED" stroke="#C3C3C3" stroke-width="8"/>
<path d="M157.5 294.035L117 313.956L117 356.289H213V294.035H157.5Z" fill="#EDEDED" stroke="#C3C3C3" stroke-width="8"/>
<path d="M114 455.895H6.5L6.5 325.909L114 325.909V363.079L213 361.27L213 423.523L153.5 423.523L114 444.441V455.895Z" fill="#EDEDED" stroke="#C3C3C3" stroke-width="8"/>
<path d="M157.5 428.504L117 448.425L117 490.758H213V428.504H157.5Z" fill="#EDEDED" stroke="#C3C3C3" stroke-width="8"/>
<path d="M114 590.364H6.5L6.5 460.378L114 460.378V497.548L213 495.738L213 557.992H153.5L114 578.909V590.364Z" fill="#EDEDED" stroke="#C3C3C3" stroke-width="8"/>
<path d="M157.5 562.972L117 582.893L117 625.226H213V562.972H157.5Z" fill="#EDEDED" stroke="#C3C3C3" stroke-width="8"/>
<path d="M140 744.754V755.71H26.5001L26.5 655.606H6.5L6.5 594.846L114 594.846V632.016L213 630.207L213 699.931H159.5L140 744.754Z" fill="#EDEDED" stroke="#C3C3C3" stroke-width="8"/>
<path d="M162 706.406L145.5 745.252V779.118L145.5 808.502H213V706.406L162 706.406Z" fill="#EDEDED" stroke="#C3C3C3" stroke-width="8"/>
<path d="M630 225.805L610 186.959H564V281.086H624V230.287L630 225.805Z" fill="#EDEDED" stroke="#C3C3C3" stroke-width="8"/>
<path d="M496 226.303L476 187.456H430V281.584H490V230.785L496 226.303Z" fill="#EDEDED" stroke="#C3C3C3" stroke-width="8"/>
<path d="M901.5 262L901.5 54L786 54V71.5L765.5 118.5H717.5V74.902L598.5 74.902V182.975H612.5L635.5 227.299L630 230.287V257.181V282.083H691V224.809L799.5 224.809V262L901.5 262Z" fill="#EDEDED" stroke="#C3C3C3" stroke-width="8"/>
<path d="M558.5 182.476H592.5V76.3956L463.5 76.3956V182.476L477.5 182.476L501.5 227.797L496 230.785V281.584H558.5V182.476Z" fill="#EDEDED" stroke="#C3C3C3" stroke-width="8"/>
<path d="M362.5 226.303L342.5 187.456H296.5V281.584H356.5V230.785L362.5 226.303Z" fill="#EDEDED" stroke="#C3C3C3" stroke-width="8"/>
<path d="M425 182.476H459L459 76.3956L330 76.3956V182.476L344 182.476L368 227.797L362.5 230.785V281.584H425V182.476Z" fill="#EDEDED" stroke="#C3C3C3" stroke-width="8"/>
<path d="M211.5 50L6 50" stroke="#C3C3C3" stroke-width="8"/>
</svg>
