<svg width="907" height="727" viewBox="0 0 907 727" fill="none" xmlns="http://www.w3.org/2000/svg">
<path d="M797.5 173.294H694.5V104.581H717H749L797.5 127.983V173.294Z" fill="#EDEDED" stroke="#C3C3C3" stroke-width="8"/>
<path d="M6 346.57V473.541H112V455.615L156.5 438.188L161.5 442.669H208V380.429H112V346.57H6Z" fill="#EDEDED" stroke="#C3C3C3" stroke-width="8"/>
<path d="M902.5 3.99998H694V98.1073H745.5L802 124.995V136.945H902.5V3.99998Z" fill="#EDEDED"/>
<path fill-rule="evenodd" clip-rule="evenodd" d="M288 717.523H216.5V241.011H626V129.974H582.5V50.8047H626V31.8836H689.5V723H617.5V685.656H578.5V639.349H617.5V598.519H570.5H530.5H376.5V641.341H337V598.519H288V638.851H327V687.15H288V717.523ZM337 392.379V549.723H343V516.362H371V542.254H376.5V516.362H441.5H447H459V537.773H464.5V516.362H530.5H564V549.723H570.5V392.379H564H510.5H503.5H438.5V431.715H402V392.379H396.5V431.715H343V392.379H337Z" fill="#EDEDED"/>
<path d="M564 392.379H510.5H503.5H438.5V431.715H402V392.379H396.5V431.715H343V392.379H337V549.723H343V516.362H371V542.254H376.5V516.362H441.5H447H459V537.773H464.5V516.362H530.5H564V549.723H570.5V392.379H564ZM564 392.379V431.715M694 3.99998H902.5V136.945H802V124.995L745.5 98.1073H694V3.99998ZM216.5 717.523H288V687.15H327V638.851H288V598.519H337V641.341H376.5V598.519H530.5H570.5H617.5V639.349H578.5V685.656H617.5V723H689.5V31.8836H626V50.8047H582.5V129.974H626V241.011H216.5V717.523Z" stroke="#C3C3C3" stroke-width="8"/>
<path d="M523.5 608.478H383.5V652.295H442.5V694.618H574V649.805V608.478H523.5Z" fill="#EDEDED" stroke="#C3C3C3" stroke-width="8"/>
<path d="M443.5 510.885H564V398.852H443.5V510.885Z" fill="#EDEDED" stroke="#C3C3C3" stroke-width="8"/>
<path d="M341 510.387H439V436.695H341V510.387Z" fill="#EDEDED" stroke="#C3C3C3" stroke-width="8"/>
<path d="M111.5 480.512H4V609.474H111.5V636.362H160.5V521.839H111.5V480.512Z" fill="#EDEDED"/>
<path d="M210.5 642.835H101.5V709.556H210.5V642.835Z" fill="#EDEDED"/>
<path d="M111.5 480.512H4V609.474H111.5V636.362H160.5V521.839H111.5V480.512Z" stroke="#C3C3C3" stroke-width="8"/>
<path d="M210.5 642.835H101.5V709.556H210.5V642.835Z" stroke="#C3C3C3" stroke-width="8"/>
<path d="M111.5 480.512H4V609.474H111.5V636.362H160.5V521.839H111.5V480.512Z" fill="#EDEDED"/>
<path d="M210.5 642.835H101.5V709.556H210.5V642.835Z" fill="#EDEDED"/>
<path d="M111.5 480.512H4V609.474H111.5V636.362H160.5V521.839H111.5V480.512Z" stroke="#C3C3C3" stroke-width="8"/>
<path d="M210.5 642.835H101.5V709.556H210.5V642.835Z" stroke="#C3C3C3" stroke-width="8"/>
<path d="M209.5 521.84H165.5V636.362H209.5V521.84Z" fill="#EDEDED" stroke="#C3C3C3" stroke-width="8"/>
<path d="M153 510.387H116V461.093L153 445.159L159 451.632H209.5V461.093V510.387H153Z" fill="#EDEDED" stroke="#C3C3C3" stroke-width="8"/>
<path d="M153.5 372.96H116.5V323.666L153.5 307.733L159.5 314.206H210V323.666V372.96H153.5Z" fill="#EDEDED" stroke="#C3C3C3" stroke-width="8"/>
<path d="M792.5 275.368H900V143.418H802.5V182.754L693.5 180.763V243.003H753L792.5 263.916V275.368Z" fill="#EDEDED" stroke="#C3C3C3" stroke-width="8"/>
<path d="M749 247.982L789.5 267.899V310.222H693.5V247.982H749Z" fill="#EDEDED" stroke="#C3C3C3" stroke-width="8"/>
<path d="M792.5 409.807H900V279.849L792.5 279.849V317.01L693.5 315.201V377.442H753L792.5 398.354V409.807Z" fill="#EDEDED" stroke="#C3C3C3" stroke-width="8"/>
<path d="M749 382.421L789.5 402.338V444.661H693.5V382.421H749Z" fill="#EDEDED" stroke="#C3C3C3" stroke-width="8"/>
<path d="M792.5 544.246H900V414.288L792.5 414.288V451.45L693.5 449.641V511.881H753L792.5 532.794V544.246Z" fill="#EDEDED" stroke="#C3C3C3" stroke-width="8"/>
<path d="M749 516.86L789.5 536.777V579.1H693.5V516.86H749Z" fill="#EDEDED" stroke="#C3C3C3" stroke-width="8"/>
<path d="M106 207.152H11.5V159.352H35.5V140.929H72L106 159.352V207.152Z" fill="#EDEDED"/>
<path d="M276.5 179.767L296.5 140.929H342.5V235.036H282.5V184.248L276.5 179.767Z" fill="#EDEDED"/>
<path d="M106 207.152H11.5V159.352H35.5V140.929H72L106 159.352V207.152Z" stroke="#C3C3C3" stroke-width="8"/>
<path d="M276.5 179.767L296.5 140.929H342.5V235.036H282.5V184.248L276.5 179.767Z" stroke="#C3C3C3" stroke-width="8"/>
<path d="M410.5 180.265L430.5 141.427H476.5V235.534H416.5V184.746L410.5 180.265Z" fill="#EDEDED" stroke="#C3C3C3" stroke-width="8"/>
<path d="M68.5 130.97H53V28.896H308V136.945H294L271 181.26L276.5 184.248V211.136V236.032H215.5L217 209.144H163.5H116V157.858L68.5 130.97Z" fill="#EDEDED" stroke="#C3C3C3" stroke-width="8"/>
<path d="M348 136.448H314V30.3902H443V136.448H429L405 181.759L410.5 184.746V235.534H348V136.448Z" fill="#EDEDED" stroke="#C3C3C3" stroke-width="8"/>
<path d="M544 180.265L564 141.427H610V235.534H550V184.746L544 180.265Z" fill="#EDEDED" stroke="#C3C3C3" stroke-width="8"/>
<path d="M481.5 136.448H447.5V30.3902H576.5V136.448H562.5L538.5 181.759L544 184.746V235.534H481.5V136.448Z" fill="#EDEDED" stroke="#C3C3C3" stroke-width="8"/>
<path d="M695 4H900.5" stroke="#C3C3C3" stroke-width="8"/>
<path d="M788 713.042H694.5V586.569H794V547.731H900.5V678.685H788V713.042Z" fill="#EDEDED" stroke="#C3C3C3" stroke-width="8"/>
<path d="M210.5 215.617H4.5V340.595H112.5V323.168L157.5 303.251L162 309.226H210.5V215.617Z" fill="#EDEDED" stroke="#C3C3C3" stroke-width="8"/>
</svg>
