<svg width="919" height="767" viewBox="0 0 919 767" fill="none" xmlns="http://www.w3.org/2000/svg">
<path fill-rule="evenodd" clip-rule="evenodd" d="M693.5 717.679H622L622 701.742L583 701.742V638.99H622V598.649H573V602.136L382.5 602.136H292.5L292.5 639.488H331.5V701.742L292.5 701.742V723.157H220.5L222.5 241.063L633 241.063V137.472H589V49.8186H633V21.9289H679.5V31.3915H693.5L693.5 717.679ZM573 392.464L573 549.842H570V516.474H540.5V542.372H535.5V516.474H455V539.384H450V516.474L346 516.474V549.842H339.5L339.5 392.464L418 392.464H473.5V431.809H512V392.464H517V431.809H570V392.464H573Z" fill="#EDEDED" stroke="#C3C3C3" stroke-width="8"/>
<path d="M581 700.746L581 608.61L338 608.61V700.746L581 700.746Z" fill="#EDEDED" stroke="#C3C3C3" stroke-width="8"/>
<path d="M474.5 510.996H569V440.276H474.5V510.996Z" fill="#EDEDED" stroke="#C3C3C3" stroke-width="8"/>
<path d="M346.5 510.996L467.5 510.996L467.5 399.437H346.5V510.996Z" fill="#EDEDED" stroke="#C3C3C3" stroke-width="8"/>
<path d="M566.5 139.962H582L582 33.3833L454.5 33.3833L454.5 136.476L489 136.476V238.074L543 238.074V181.797L566.5 139.962Z" fill="#EDEDED" stroke="#C3C3C3" stroke-width="8"/>
<path d="M617.5 238.074V143.946H571.5L547.5 187.275V238.074L617.5 238.074Z" fill="#EDEDED" stroke="#C3C3C3" stroke-width="8"/>
<path d="M431.5 138.966H447L447 32.3872L319.5 32.3872L319.5 135.48L354 135.48V237.078L408 237.078V180.801L431.5 138.966Z" fill="#EDEDED" stroke="#C3C3C3" stroke-width="8"/>
<path d="M296 139.962H311.5L311.5 33.3833L57.5 33.3833L57.5 132.99H71.5L116 156.397L116 212.675L218.5 212.675V238.074L272.5 238.074V181.797L296 139.962Z" fill="#EDEDED" stroke="#C3C3C3" stroke-width="8"/>
<path d="M215 309.293L215 216.66L5.5 216.66L5.5 340.171L117 340.171V329.215L163 309.293H215Z" fill="#EDEDED" stroke="#C3C3C3" stroke-width="8"/>
<path d="M482.5 237.078V142.95H436.5L412.5 186.279V237.078L482.5 237.078Z" fill="#EDEDED" stroke="#C3C3C3" stroke-width="8"/>
<path d="M914.5 139.465V4.00029L699 4.00029V98.6263L751.5 98.6263L808 125.52V139.465H844.5L914.5 139.465Z" fill="#EDEDED" stroke="#C3C3C3" stroke-width="8"/>
<path d="M804 175.323V129.006L756.5 105.101L701 105.101V175.323L804 175.323Z" fill="#EDEDED" stroke="#C3C3C3" stroke-width="8"/>
<path d="M804 175.323V129.006L756.5 105.101L701 105.101V175.323L804 175.323Z" fill="#EDEDED" stroke="#C3C3C3" stroke-width="8"/>
<path d="M914.5 275.427V146.437L810 146.437V181.797L699 181.797V244.051H752L757 237.576L800 262.478V275.427L914.5 275.427Z" fill="#EDEDED" stroke="#C3C3C3" stroke-width="8"/>
<path d="M794 309.792V263.475L758.5 243.055L754 250.028L699.5 250.028V309.792H794Z" fill="#EDEDED" stroke="#C3C3C3" stroke-width="8"/>
<path d="M914.5 410.892V281.901H800V317.262L699 317.262V379.516H752L757 373.041L800 397.943V410.892L914.5 410.892Z" fill="#EDEDED" stroke="#C3C3C3" stroke-width="8"/>
<path d="M794 445.256V398.939L758.5 378.52L754 385.492H699.5V445.256H794Z" fill="#EDEDED" stroke="#C3C3C3" stroke-width="8"/>
<path d="M914.5 545.36V416.37H800V451.73L699 451.73V513.984L752 513.984L757 507.51L800 532.412V545.36H914.5Z" fill="#EDEDED" stroke="#C3C3C3" stroke-width="8"/>
<path d="M913.5 709.212L913.5 550.34L801 550.34V585.203L700 585.203V655.425L755.5 655.425L776.5 701.742V709.212L913.5 709.212Z" fill="#EDEDED" stroke="#C3C3C3" stroke-width="8"/>
<path d="M771.5 763L771.5 705.726L752.5 660.406L733 671.86H707.5L707.5 763L771.5 763Z" fill="#EDEDED" stroke="#C3C3C3" stroke-width="8"/>
<path d="M794 579.725V533.408L758.5 512.988L754 519.961H699.5V579.725H794Z" fill="#EDEDED" stroke="#C3C3C3" stroke-width="8"/>
<path d="M347.5 237.078V142.95H301.5L277.5 186.279V237.078L347.5 237.078Z" fill="#EDEDED" stroke="#C3C3C3" stroke-width="8"/>
<path d="M18 210.186L111 210.186L111 161.312L68.1905 138.469L18 138.469L18 210.186Z" fill="#EDEDED" stroke="#C3C3C3" stroke-width="8"/>
<path d="M121.5 375.531L214.5 375.531L214.5 313.775L163.5 313.775L121.5 333.697L121.5 375.531Z" fill="#EDEDED" stroke="#C3C3C3" stroke-width="8"/>
<path d="M213.5 446.75L213.5 383.5H115.5L115.5 348.14L4 348.14L4 477.628L115.5 477.628V466.671L161.5 446.75H213.5Z" fill="#EDEDED" stroke="#C3C3C3" stroke-width="8"/>
<path d="M213 451.232L162 451.232L120 471.153L120 506.016L157.5 522.949L213 522.949L213 451.232Z" fill="#EDEDED" stroke="#C3C3C3" stroke-width="8"/>
<path d="M115.5 482.608L115.5 512.988L154 530.419L154 637.496L28.5001 637.496L28.5001 614.587L4.99999 614.587L5 482.608L115.5 482.608Z" fill="#EDEDED" stroke="#C3C3C3" stroke-width="8"/>
<path d="M161.5 530.419L213 530.419L213 637.496L161.5 637.496L161.5 530.419Z" fill="#EDEDED" stroke="#C3C3C3" stroke-width="8"/>
</svg>
