<svg width="913" height="1057" viewBox="0 0 913 1057" fill="none" xmlns="http://www.w3.org/2000/svg">
<path d="M208 500H4V322H17.5V311H93.5L106 387V395.5H208V500Z" fill="#EDEDED"/>
<path d="M208 377.5H118.5V358H126.5L129.5 304.5H208V377.5Z" fill="#EDEDED"/>
<path d="M208 707V606.5H106L93.5 521H4L4 714H208V707Z" fill="#EDEDED"/>
<path d="M208 923.5V821.5L106 813L93.5 729H4V898.5H17.5V923.5H208Z" fill="#EDEDED"/>
<path d="M216.5 12V209H328V114L413.5 104.5V12H216.5Z" fill="#EDEDED"/>
<path d="M413.5 214.5H336V119H359.5L366.5 141.5L413.5 136.5V214.5Z" fill="#EDEDED"/>
<path d="M106 209H4V27H17.5V5L201 12V96L118.5 114L106 209Z" fill="#EDEDED"/>
<path d="M126.5 209V123.5H151.5V141.5H201V209H126.5Z" fill="#EDEDED"/>
<path d="M426.5 214.5L539.5 214.5V114L626.5 101V19.5H596V12H426.5V214.5Z" fill="#EDEDED"/>
<path d="M547.5 119L574.5 114V136.5H626.5L623.5 212.5H547.5V119Z" fill="#EDEDED"/>
<path d="M208 591H118.5L106 565H136.5V521H201L208 591Z" fill="#EDEDED"/>
<path d="M208 802.5H111.5V779.5L131.5 773V729H208V802.5Z" fill="#EDEDED"/>
<path d="M817 209H908.5V25.5H897.5V12H704.5V119L805.5 123.5L817 209Z" fill="#EDEDED"/>
<path d="M800 155.5V131H704.5V209H783V159.5L800 155.5Z" fill="#EDEDED"/>
<path d="M817 422.5H908.5V319.5H898.5V298H908.5V220.5L704.5 224V335H805.5L817 422.5Z" fill="#EDEDED"/>
<path d="M800 365.5V344.5H704.5L703 419.5L783 422.5V371L800 365.5Z" fill="#EDEDED"/>
<path d="M908.5 841V645H703V753.5H800L817 841H908.5Z" fill="#EDEDED"/>
<path d="M817 630H908.5V625.5H897.5V600.5H908.5L908.5 433.5H704.5L704.5 544.5H805.5L817 630Z" fill="#EDEDED"/>
<path d="M800 576V551.5H703L704.5 630H783V579.5L800 576Z" fill="#EDEDED"/>
<path d="M783 791V841H704.5L703 760H790L802 788.5L783 791Z" fill="#EDEDED"/>
<path fill-rule="evenodd" clip-rule="evenodd" d="M4 292V224L639 224V12H695L695 1053H621.5V733H600V760H358.5V733H350.5V760H300V733H291V898.5H219L216.5 292H4ZM495.5 660.5H504V657L500.5 603H483V587H500.5V579.5H483V551.5H504V422.5H553.5L553.5 296L358.5 296V514H291L291 660.5H300V630H339.5V651.5H346.5V630H437V651.5H442.5V630H495.5V660.5ZM320.5 296V322V325.5H291V296H320.5ZM621.5 335H591.5V296H621.5V335ZM621.5 596.5V630H591.5V596.5H621.5Z" fill="#EDEDED"/>
<path d="M545 409L366.5 409V304.5L545 304.5L545 409Z" fill="#EDEDED"/>
<path d="M495.5 514V428L366.5 422.5V514L495.5 514Z" fill="#EDEDED"/>
<path d="M476 618V548H495.5V525.5L354.5 525.5V534.5H300L300 603H320.5V618H476Z" fill="#EDEDED"/>
<path d="M552.5 773V813H525.5V826.5H500.5L500.5 767.5H552.5L550.945 779.5L552.5 773Z" fill="#EDEDED"/>
<path d="M609.5 841V767.5H561.5V821.5H532V830H495.5V880.5H546V847L609.5 841Z" fill="#EDEDED"/>
<path d="M408 923.5L326.5 923.5V898.5H300V773L408 767.5L408 923.5Z" fill="#EDEDED"/>
<path d="M704.5 963.5V855.5H908.5V902H892.5V929.5H908.5V1053H813.5L802 963.5H704.5Z" fill="#EDEDED"/>
<path d="M790 1000.5H800V973H704.5L703 1053H783V1000.5H790Z" fill="#EDEDED"/>
<path d="M208 500H4V322H17.5V311H93.5L106 387V395.5H208V500Z" stroke="#C3C3C3" stroke-width="8"/>
<path d="M208 377.5H118.5V358H126.5L129.5 304.5H208V377.5Z" stroke="#C3C3C3" stroke-width="8"/>
<path d="M208 707V606.5H106L93.5 521H4L4 714H208V707Z" stroke="#C3C3C3" stroke-width="8"/>
<path d="M208 923.5V821.5L106 813L93.5 729H4V898.5H17.5V923.5H208Z" stroke="#C3C3C3" stroke-width="8"/>
<path d="M216.5 12V209H328V114L413.5 104.5V12H216.5Z" stroke="#C3C3C3" stroke-width="8"/>
<path d="M413.5 214.5H336V119H359.5L366.5 141.5L413.5 136.5V214.5Z" stroke="#C3C3C3" stroke-width="8"/>
<path d="M106 209H4V27H17.5V5L201 12V96L118.5 114L106 209Z" stroke="#C3C3C3" stroke-width="8"/>
<path d="M126.5 209V123.5H151.5V141.5H201V209H126.5Z" stroke="#C3C3C3" stroke-width="8"/>
<path d="M426.5 214.5L539.5 214.5V114L626.5 101V19.5H596V12H426.5V214.5Z" stroke="#C3C3C3" stroke-width="8"/>
<path d="M547.5 119L574.5 114V136.5H626.5L623.5 212.5H547.5V119Z" stroke="#C3C3C3" stroke-width="8"/>
<path d="M208 591H118.5L106 565H136.5V521H201L208 591Z" stroke="#C3C3C3" stroke-width="8"/>
<path d="M208 802.5H111.5V779.5L131.5 773V729H208V802.5Z" stroke="#C3C3C3" stroke-width="8"/>
<path d="M817 209H908.5V25.5H897.5V12H704.5V119L805.5 123.5L817 209Z" stroke="#C3C3C3" stroke-width="8"/>
<path d="M800 155.5V131H704.5V209H783V159.5L800 155.5Z" stroke="#C3C3C3" stroke-width="8"/>
<path d="M817 422.5H908.5V319.5H898.5V298H908.5V220.5L704.5 224V335H805.5L817 422.5Z" stroke="#C3C3C3" stroke-width="8"/>
<path d="M800 365.5V344.5H704.5L703 419.5L783 422.5V371L800 365.5Z" stroke="#C3C3C3" stroke-width="8"/>
<path d="M908.5 841V645H703V753.5H800L817 841H908.5Z" stroke="#C3C3C3" stroke-width="8"/>
<path d="M817 630H908.5V625.5H897.5V600.5H908.5L908.5 433.5H704.5L704.5 544.5H805.5L817 630Z" stroke="#C3C3C3" stroke-width="8"/>
<path d="M800 576V551.5H703L704.5 630H783V579.5L800 576Z" stroke="#C3C3C3" stroke-width="8"/>
<path d="M783 791V841H704.5L703 760H790L802 788.5L783 791Z" stroke="#C3C3C3" stroke-width="8"/>
<path fill-rule="evenodd" clip-rule="evenodd" d="M4 292V224L639 224V12H695L695 1053H621.5V733H600V760H358.5V733H350.5V760H300V733H291V898.5H219L216.5 292H4ZM495.5 660.5H504V657L500.5 603H483V587H500.5V579.5H483V551.5H504V422.5H553.5L553.5 296L358.5 296V514H291L291 660.5H300V630H339.5V651.5H346.5V630H437V651.5H442.5V630H495.5V660.5ZM320.5 296V322V325.5H291V296H320.5ZM621.5 335H591.5V296H621.5V335ZM621.5 596.5V630H591.5V596.5H621.5Z" stroke="#C3C3C3" stroke-width="8"/>
<path d="M545 409L366.5 409V304.5L545 304.5L545 409Z" stroke="#C3C3C3" stroke-width="8"/>
<path d="M495.5 514V428L366.5 422.5V514L495.5 514Z" stroke="#C3C3C3" stroke-width="8"/>
<path d="M476 618V548H495.5V525.5L354.5 525.5V534.5H300L300 603H320.5V618H476Z" stroke="#C3C3C3" stroke-width="8"/>
<path d="M552.5 773V813H525.5V826.5H500.5L500.5 767.5H552.5L550.945 779.5L552.5 773Z" stroke="#C3C3C3" stroke-width="8"/>
<path d="M609.5 841V767.5H561.5V821.5H532V830H495.5V880.5H546V847L609.5 841Z" stroke="#C3C3C3" stroke-width="8"/>
<path d="M408 923.5L326.5 923.5V898.5H300V773L408 767.5L408 923.5Z" stroke="#C3C3C3" stroke-width="8"/>
<path d="M704.5 963.5V855.5H908.5V902H892.5V929.5H908.5V1053H813.5L802 963.5H704.5Z" stroke="#C3C3C3" stroke-width="8"/>
<path d="M790 1000.5H800V973H704.5L703 1053H783V1000.5H790Z" stroke="#C3C3C3" stroke-width="8"/>
</svg>
