<svg width="1168" height="1113" viewBox="0 0 1168 1113" fill="none" xmlns="http://www.w3.org/2000/svg">
<path d="M204 949V941H111L97.5 849H4V900H21V917H4V1053.5H204V949Z" fill="#EDEDED"/>
<path fill-rule="evenodd" clip-rule="evenodd" d="M692 949H624.5V725L295 732V1109H222.5V4H278V221.5H909V280.5H697.5L692 949ZM360 415.5V294H561V510H624.5V625H551V646.5H541.5V625H456.5V656.5H447.5V625H426V656.5H403V603.5H426V585H413.5V573.5H426V546.5H413.5V415.5H360ZM295 313.5V294H321V313.5H295ZM296 618V585H321V618H296ZM595 333V294H624.5V333H595Z" fill="#EDEDED"/>
<path d="M133.5 849V900L114.5 905.5V934.5H210V849H133.5Z" fill="#EDEDED"/>
<path d="M210 720.5H111L97.5 636.5H4V830.5H210V720.5Z" fill="#EDEDED"/>
<path d="M133.5 636.5V687.5H111L114.5 712.5H204L210 636.5H133.5Z" fill="#EDEDED"/>
<path d="M210 510H111L97.5 427H4V595.5H21V618H4V625H210V510Z" fill="#EDEDED"/>
<path d="M129.5 476.5L114.5 477V505.5H210V427H127L129.5 476.5Z" fill="#EDEDED"/>
<path d="M210 411L204 301H111L97.5 215.5H4V294H21V313.5H4V411H210Z" fill="#EDEDED"/>
<path d="M133.5 215.5V264.5H114.5V294H210V215.5H133.5Z" fill="#EDEDED"/>
<path d="M210 91H111L97.5 4H21V22.5H4V195H210V91Z" fill="#EDEDED"/>
<path d="M426 415.5V510H551V415.5H426Z" fill="#EDEDED"/>
<path d="M371 301V397.5H541.5V301H371Z" fill="#EDEDED"/>
<path d="M421 518V537.5H437L438.5 612.5H585V595.5L606.5 593L612 595.5V529.5H561V518H421Z" fill="#EDEDED"/>
<path d="M339.5 207.5H296V10H314.5L321 4H491.5V94L403 109V207.5H339.5Z" fill="#EDEDED"/>
<path d="M551 207.5H504V4H597.5L598.5 15.5H619V4H697.5V94L612 109V207.5H551Z" fill="#EDEDED"/>
<path d="M413.5 117V207.5H491.5V129.5H437V109L413.5 117Z" fill="#EDEDED"/>
<path d="M127 56.5H114.5V80.5H210V4H127V56.5Z" fill="#EDEDED"/>
<path d="M759 207.5H710V4H893V15.5H909L904.5 98.5L826 109V207.5H759Z" fill="#EDEDED"/>
<path d="M619 117V207.5H697.5V129.5H647.5V117H619Z" fill="#EDEDED"/>
<path d="M830.5 113V207.5H909L904.5 129.5H858V109L830.5 113Z" fill="#EDEDED"/>
<path d="M707.5 288.5V397.5H805.5L817 484H909V313.5H893V294H909V288.5H707.5Z" fill="#EDEDED"/>
<path d="M707.5 404.5H798.5V434H780.5V484H710L707.5 404.5Z" fill="#EDEDED"/>
<path d="M707.5 500V603.5H805.5L817 697.5H909V618H893V595.5H909V500H707.5Z" fill="#EDEDED"/>
<path d="M798.5 618H710V697.5H780.5V646.5H798.5V618Z" fill="#EDEDED"/>
<path d="M707.5 712.5V792H764.5V774H830.5V705.5H707.5V712.5Z" fill="#EDEDED"/>
<path d="M840.5 705.5V774H937.5V760H952V830.5H1075V603.5H928V705.5H840.5Z" fill="#EDEDED"/>
<path d="M1084 636.5V603.5H1163.5V687.5H1113.5V705.5H1084V636.5Z" fill="#EDEDED"/>
<path d="M729 799H767V847.5H830.5V858V902H704.5V835H729V799Z" fill="#EDEDED"/>
<path d="M204 941V949V1053.5M204 941H111L97.5 849H4V900H21V917H4V1053.5H204M204 941V1053.5M798.5 618C784.1 618 733.5 618 710 618M798.5 618V646.5H780.5V697.5H710V618M798.5 618H710M133.5 849V900L114.5 905.5V934.5H210V849H133.5ZM210 720.5H111L97.5 636.5H4V830.5H210V720.5ZM133.5 636.5V687.5H111L114.5 712.5H204L210 636.5H133.5ZM210 510H111L97.5 427H4V595.5H21V618H4V625H210V510ZM129.5 476.5L114.5 477V505.5H210V427H127L129.5 476.5ZM210 411L204 301H111L97.5 215.5H4V294H21V313.5H4V411H210ZM133.5 215.5V264.5H114.5V294H210V215.5H133.5ZM210 91H111L97.5 4H21V22.5H4V195H210V91ZM127 56.5H114.5V80.5H210V4H127V56.5ZM339.5 207.5H296V10H314.5L321 4H491.5V94L403 109V207.5H339.5ZM413.5 117V207.5H491.5V129.5H437V109L413.5 117ZM551 207.5H504V4H597.5L598.5 15.5H619V4H697.5V94L612 109V207.5H551ZM619 117V207.5H697.5V129.5H647.5V117H619ZM759 207.5H710V4H893V15.5H909L904.5 98.5L826 109V207.5H759ZM830.5 113V207.5H909L904.5 129.5H858V109L830.5 113ZM707.5 288.5V397.5H805.5L817 484H909V313.5H893V294H909V288.5H707.5ZM707.5 404.5H798.5V434H780.5V484H710L707.5 404.5ZM707.5 500V603.5H805.5L817 697.5H909V618H893V595.5H909V500H707.5ZM421 518V537.5H437L438.5 612.5H585V595.5L606.5 593L612 595.5V529.5H561V518H421ZM426 415.5V510H551V415.5H426ZM692 949H624.5V725L295 732V1109H222.5V4H278V221.5H909V280.5H697.5L692 949ZM371 301V397.5H541.5V301H371ZM360 294V415.5H413.5V546.5H426V573.5H413.5V585H426V603.5H403V656.5H426V625H447.5V656.5H456.5V625H541.5V646.5H551V625H624.5V510H561V294H360ZM295 294V313.5H321V294H295ZM296 585V618H321V585H296ZM595 294V333H624.5V294H595ZM707.5 712.5V792H764.5V774H830.5V705.5H707.5V712.5ZM840.5 705.5V774H937.5V760H952V830.5H1075V603.5H928V705.5H840.5ZM1084 636.5V603.5H1163.5V687.5H1113.5V705.5H1084V636.5ZM729 799H767V847.5H830.5V858V902H704.5V835H729V799Z" stroke="#C3C3C3" stroke-width="8"/>
<path d="M819.5 784H772.5V844H810H832V812H819.5V784Z" fill="#EDEDED"/>
<path d="M838.5 902V784H939.5V819H926.5V844H1077V951H972.5V919H922V902H838.5Z" fill="#EDEDED"/>
<path d="M819.5 784H772.5V844H810H832V812H819.5V784Z" stroke="#C3C3C3" stroke-width="8"/>
<path d="M838.5 902V784H939.5V819H926.5V844H1077V951H972.5V919H922V902H838.5Z" stroke="#C3C3C3" stroke-width="8"/>
</svg>
