<svg width="932" height="892" viewBox="0 0 932 892" fill="none" xmlns="http://www.w3.org/2000/svg">
<path fill-rule="evenodd" clip-rule="evenodd" d="M633.5 887.5H698V877.5H704V630H769.5V142H667V161H137V223H156.5L156 528H223V769.5H295V606H633.5V887.5ZM598 336V300.5H633.5V336H598ZM290 344V300.5H329.5V344H290ZM572 336H354V443H404V523.5H380.5V507.5H373V515H354V507.5H350L347.5 519H324.5V504.5H317.5V541.5H324.5V528H347.5V546.5H593V538H572V336Z" fill="#EDEDED"/>
<path d="M457 618.5H520.5V845.5H411.5V717.5H452L457 618.5Z" fill="#EDEDED"/>
<path d="M153.5 538L156 625.5H214V538H153.5Z" fill="#EDEDED"/>
<path d="M141.5 501V622H25.5V589.5H4V501H141.5Z" fill="#EDEDED"/>
<path d="M141.5 365.5V486H4V365.5H141.5Z" fill="#EDEDED"/>
<path d="M145.5 351L141.5 232.5H4V303.5H25.5V333H4V351H145.5Z" fill="#EDEDED"/>
<path d="M363 344V431H565V344H363Z" fill="#EDEDED"/>
<path d="M416.5 443V533H565V443H416.5Z" fill="#EDEDED"/>
<path d="M290 152H270V4H300.5V28.5H324V8H389.5V152H290Z" fill="#EDEDED"/>
<path d="M156.5 152H137V4H259.5V152H156.5Z" fill="#EDEDED"/>
<path d="M127 161V223H4V28.5H20.5V4H127V161Z" fill="#EDEDED"/>
<path d="M426 152H404V8H525.5V152H426Z" fill="#EDEDED"/>
<path d="M538 8V152H657.5V28.5H601.5V8H538Z" fill="#EDEDED"/>
<path d="M667 8V132H927.5V28.5H906V8H667Z" fill="#EDEDED"/>
<path d="M782 142V263.5L927.5 268V142H782Z" fill="#EDEDED"/>
<path d="M782 276V397.5H927.5V336H906V300.5H927.5V276H782Z" fill="#EDEDED"/>
<path d="M782 407V528H927.5V407H782Z" fill="#EDEDED"/>
<path d="M780 541.5V662.5H906V601.5H927.5V541.5H780Z" fill="#EDEDED"/>
<path fill-rule="evenodd" clip-rule="evenodd" d="M633.5 887.5H698V877.5H704V630H769.5V142H667V161H137V223H156.5L156 528H223V769.5H295V606H633.5V887.5ZM598 336V300.5H633.5V336H598ZM290 344V300.5H329.5V344H290ZM572 336H354V443H404V523.5H380.5V507.5H373V515H354V507.5H350L347.5 519H324.5V504.5H317.5V541.5H324.5V528H347.5V546.5H593V538H572V336Z" stroke="#C3C3C3" stroke-width="8"/>
<path d="M457 618.5H520.5V845.5H411.5V717.5H452L457 618.5Z" stroke="#C3C3C3" stroke-width="8"/>
<path d="M153.5 538L156 625.5H214V538H153.5Z" stroke="#C3C3C3" stroke-width="8"/>
<path d="M141.5 501V622H25.5V589.5H4V501H141.5Z" stroke="#C3C3C3" stroke-width="8"/>
<path d="M141.5 365.5V486H4V365.5H141.5Z" stroke="#C3C3C3" stroke-width="8"/>
<path d="M145.5 351L141.5 232.5H4V303.5H25.5V333H4V351H145.5Z" stroke="#C3C3C3" stroke-width="8"/>
<path d="M363 344V431H565V344H363Z" stroke="#C3C3C3" stroke-width="8"/>
<path d="M416.5 443V533H565V443H416.5Z" stroke="#C3C3C3" stroke-width="8"/>
<path d="M290 152H270V4H300.5V28.5H324V8H389.5V152H290Z" stroke="#C3C3C3" stroke-width="8"/>
<path d="M156.5 152H137V4H259.5V152H156.5Z" stroke="#C3C3C3" stroke-width="8"/>
<path d="M127 161V223H4V28.5H20.5V4H127V161Z" stroke="#C3C3C3" stroke-width="8"/>
<path d="M426 152H404V8H525.5V152H426Z" stroke="#C3C3C3" stroke-width="8"/>
<path d="M538 8V152H657.5V28.5H601.5V8H538Z" stroke="#C3C3C3" stroke-width="8"/>
<path d="M667 8V132H927.5V28.5H906V8H667Z" stroke="#C3C3C3" stroke-width="8"/>
<path d="M782 142V263.5L927.5 268V142H782Z" stroke="#C3C3C3" stroke-width="8"/>
<path d="M782 276V397.5H927.5V336H906V300.5H927.5V276H782Z" stroke="#C3C3C3" stroke-width="8"/>
<path d="M782 407V528H927.5V407H782Z" stroke="#C3C3C3" stroke-width="8"/>
<path d="M780 541.5V662.5H906V601.5H927.5V541.5H780Z" stroke="#C3C3C3" stroke-width="8"/>
</svg>
