<svg width="926" height="754" viewBox="0 0 926 754" fill="none" xmlns="http://www.w3.org/2000/svg">
<path d="M336.5 104V4.5H494V104L450.5 110L444 137.5V211H368.5V162L336.5 104Z" fill="#EDEDED"/>
<path d="M598 4.5H502V104L534 162V211H640V22.5H598V4.5Z" fill="#EDEDED"/>
<path d="M706.5 162V104H713.5V90H768.5L819.5 59.5H921.5V217.5H819.5L814 174.5L788.5 169H713.5V162H706.5Z" fill="#EDEDED"/>
<path d="M336.5 104V4.5H494V104L450.5 110L444 137.5V211H368.5V162L336.5 104Z" stroke="#C3C3C3" stroke-width="8"/>
<path d="M598 4.5H502V104L534 162V211H640V22.5H598V4.5Z" stroke="#C3C3C3" stroke-width="8"/>
<path d="M706.5 162V104H713.5V90H768.5L819.5 59.5H921.5V217.5H819.5L814 174.5L788.5 169H713.5V162H706.5Z" stroke="#C3C3C3" stroke-width="8"/>
<path d="M716 541.5V624H899.5V590H920.5V541.5H716Z" fill="#EDEDED"/>
<path d="M716 627V747H820.5V627H716Z" fill="#EDEDED"/>
<path d="M425.5 599.5V636.5H457.5V679.5H598V627H581.5V590H481V599.5H425.5Z" fill="#EDEDED"/>
<path d="M304.5 624V675H375V636.5H415V613.5H402V590H334V624H304.5Z" fill="#EDEDED"/>
<path d="M190.5 452H158L116.2 476.881L121 522H216V477H190.5V452Z" fill="#EDEDED"/>
<path d="M118 310L165 284H190.5V307H216V355H121L118 310Z" fill="#EDEDED"/>
<path d="M118 139.5L159.5 117H187V139.5H213.5V190.5L121 188.5L118 139.5Z" fill="#EDEDED"/>
<path d="M334 111.5L362 157L359.5 180H334V207.5H293V111.5H334Z" fill="#EDEDED"/>
<path d="M501.5 111.5H459V207.5H501.5L506 183.5H526L501.5 111.5Z" fill="#EDEDED"/>
<path d="M716 12V56H740V81H770.5L811.5 56V12H716Z" fill="#EDEDED"/>
<path d="M716 183.5V250.5H770.5L811.5 224V183.5H716Z" fill="#EDEDED"/>
<path d="M716 349V397H740V420H770.5L811.5 397L807.5 349H716Z" fill="#EDEDED"/>
<path d="M116.2 476.881L158 452H190.5V477H216V522H121L116.2 476.881ZM116.2 476.881L116 475V477L116.2 476.881ZM304.5 624V675H375V636.5H415V613.5H402V590H334V624H304.5ZM425.5 599.5V636.5H457.5V679.5H598V627H581.5V590H481V599.5H425.5ZM716 349V397H740V420H770.5L811.5 397L807.5 349H716ZM716 183.5V250.5H770.5L811.5 224V183.5H716ZM716 12V56H740V81H770.5L811.5 56V12H716ZM501.5 111.5H459V207.5H501.5L506 183.5H526L501.5 111.5ZM334 111.5L362 157L359.5 180H334V207.5H293V111.5H334ZM118 139.5L159.5 117H187V139.5H213.5V190.5L121 188.5L118 139.5ZM118 310L165 284H190.5V307H216V355H121L118 310ZM716 541.5V624H899.5V590H920.5V541.5H716ZM716 627V747H820.5V627H716Z" stroke="#C3C3C3" stroke-width="8"/>
<path d="M5.5 308V148.5L108 151.5L110.5 197.5L159 202H213V281.5H166.5L110.5 308H5.5Z" fill="#EDEDED"/>
<path d="M715 334V259H767.5L821.5 227H922V384H821.5L816 340L788.5 334H715Z" fill="#EDEDED"/>
<path d="M922 534V394H816L767.5 426H715V534H922Z" fill="#EDEDED"/>
<path d="M11 474.5V323H21V319.5H110.5L115 362.5L141 367H213V446H162.5L110.5 474.5H11Z" fill="#EDEDED"/>
<path d="M5.5 308V148.5L108 151.5L110.5 197.5L159 202H213V281.5H166.5L110.5 308H5.5Z" stroke="#C3C3C3" stroke-width="8"/>
<path d="M715 334V259H767.5L821.5 227H922V384H821.5L816 340L788.5 334H715Z" stroke="#C3C3C3" stroke-width="8"/>
<path d="M922 534V394H816L767.5 426H715V534H922Z" stroke="#C3C3C3" stroke-width="8"/>
<path d="M11 474.5V323H21V319.5H110.5L115 362.5L141 367H213V446H162.5L110.5 474.5H11Z" stroke="#C3C3C3" stroke-width="8"/>
<path fill-rule="evenodd" clip-rule="evenodd" d="M227.5 4H289.5V26H326.5V95L281.5 106V221H655.5V4H702.5V750H633.5V578H297.5V711H225.5V4H227.5ZM297.5 327V293H326.5V327H297.5ZM587.5 334V293H633.5V334H587.5ZM346 517.5V367H528V383.5H544.5V371.5H553.5V383.5H577V371.5H587.5V383.5V517.5H577V484H498.5V517.5H493V484H387.5V507.5H383.5V484H352.5V517.5H346Z" fill="#EDEDED"/>
<path d="M435.5 376.5V475H577V391H520.5V376.5H435.5Z" fill="#EDEDED"/>
<path d="M352.5 376.5V475H425V376.5H352.5Z" fill="#EDEDED"/>
<path d="M289.5 4H227.5H225.5M289.5 4V26H326.5V95L281.5 106V221H655.5V4H702.5V750H633.5V578H297.5V711H225.5V4M289.5 4H225.5M352.5 376.5L346 367M352.5 376.5V475H425V376.5H352.5ZM346 367V517.5H352.5V484H383.5V507.5H387.5V484H493V517.5H498.5V484H577V517.5H587.5V383.5V371.5H577V383.5H553.5V371.5H544.5V383.5H528V367H346ZM297.5 293V327H326.5V293H297.5ZM587.5 293V334H633.5V293H587.5ZM435.5 376.5V475H577V391H520.5V376.5H435.5Z" stroke="#C3C3C3" stroke-width="8"/>
<path d="M4 140V5H215.5V113.5H156L124.5 128.5L108 140H4Z" fill="#EDEDED" stroke="#C3C3C3" stroke-width="8"/>
</svg>
