<svg width="931" height="777" viewBox="0 0 931 777" fill="none" xmlns="http://www.w3.org/2000/svg">
<path d="M4 495H98L154.5 463V456.5H166.5V463H213V371.5H162V389H154.5V371.5H146V363.5H106.5V323.5H10L10 332.5H4L4 495Z" fill="#EDEDED"/>
<path d="M113 495L117 544H213L213 495H182V473H154.5L113 495Z" fill="#EDEDED"/>
<path d="M213 615.5H26V597H4L4 504.5H62.5V516.5H106.5V557H213V615.5Z" fill="#EDEDED"/>
<path d="M15 308.5L106.5 312.469L104 304.5L154.5 275.5H208V204H141.5L106.5 196.5L104 155H4L4 293H15L15 308.5Z" fill="#EDEDED"/>
<path d="M117 356H208V308.5H182V288.5H154.5L113.334 312.469L117 356Z" fill="#EDEDED"/>
<path d="M117 188H213V142.5H182V120.5H154.5L113.334 142.5L117 188Z" fill="#EDEDED"/>
<path d="M104 142.5H4L4 21H23V5H213L213 114L159 110L104 142.5Z" fill="#EDEDED"/>
<path d="M367.5 213H444V137.5L450.5 110H494V5H334V111.5H341.5L367.5 160.5V213Z" fill="#EDEDED"/>
<path d="M288.5 213H339V188H356.5V155L334 114L288.5 120.5V213Z" fill="#EDEDED"/>
<path d="M533 213H636V25H597.5V5L502 9.5V114L533 160.5V213Z" fill="#EDEDED"/>
<path d="M456.5 213H502V188H522V160.5L494 114L456.5 120.5V213Z" fill="#EDEDED"/>
<path d="M738 87.5H769L809 66V17.5H712.5V66H738V87.5Z" fill="#EDEDED"/>
<path d="M712.5 432.5V536.5H914.5V399H818L764 432.5H712.5Z" fill="#EDEDED"/>
<path d="M712.5 399V353.5H804L809 399L769 423.5H738V399H712.5Z" fill="#EDEDED"/>
<path d="M712.5 265.5H769L818 241V230.5H919.5V295H906V331H926L919.5 390H818L814 343.5H784L712.5 338.5V265.5Z" fill="#EDEDED"/>
<path d="M712.5 230.5V183H804L809 236L769 255.5H738V230.5L716.5 228.5L712.5 230.5Z" fill="#EDEDED"/>
<path d="M712.5 170.5V95.5H769L818 71.5V61H919.5V224.5H818L814 174L792 170.5H712.5Z" fill="#EDEDED"/>
<path fill-rule="evenodd" clip-rule="evenodd" d="M647.5 5H702.5V741.5H627V588.5H288.5V773H223.5L223.5 5H277.5V25H317.5V105.5L277.5 114V223H647.5V5ZM627 334.5H585V295H627V334.5ZM328.5 334.5H293.5L293.5 295H328.5L328.5 334.5ZM339 371.5V526.5H356.5V495H424V526.5H437.5V495L533 495V516.5H544.5V495H573V524L585 526.5V371.5L395 371.5V384H382.5V371.5H373V389L348.5 390V371.5H339Z" fill="#EDEDED"/>
<path d="M494 482.5V378.5L405 378.5V399H348.5L349.9 482.475L494 482.5Z" fill="#EDEDED"/>
<path d="M502 482.5H573V384H501.5L502 482.5Z" fill="#EDEDED"/>
<path d="M469 679.5H502V691H533V599.5H469V679.5Z" fill="#EDEDED"/>
<path d="M544.5 691H620V627H597.5V593.5H544.5V691Z" fill="#EDEDED"/>
<path d="M328.5 691H450.5V608H405V599.5H328.5V691Z" fill="#EDEDED"/>
<path d="M113 308.5L113.334 312.469M113.334 312.469L117 356H208V308.5H182V288.5H154.5L113.334 312.469ZM348.5 482.5L349.9 482.475M349.9 482.475L494 482.5V378.5L405 378.5V399H348.5L349.9 482.475ZM213 615.5H26V597H4L4 504.5H62.5V516.5H106.5V557H213V615.5ZM113 495L117 544H213L213 495H182V473H154.5L113 495ZM4 495H98L154.5 463V456.5H166.5V463H213V371.5H162V389H154.5V371.5H146V363.5H106.5V323.5H10L10 332.5H4L4 495ZM15 308.5L106.5 312.469L104 304.5L154.5 275.5H208V204H141.5L106.5 196.5L104 155H4L4 293H15L15 308.5ZM104 142.5H4L4 21H23V5H213L213 114L159 110L104 142.5ZM117 188H213V142.5H182V120.5H154.5L113.334 142.5L117 188ZM367.5 213H444V137.5L450.5 110H494V5H334V111.5H341.5L367.5 160.5V213ZM288.5 213H339V188H356.5V155L334 114L288.5 120.5V213ZM533 213H636V25H597.5V5L502 9.5V114L533 160.5V213ZM456.5 213H502V188H522V160.5L494 114L456.5 120.5V213ZM738 87.5H769L809 66V17.5H712.5V66H738V87.5ZM712.5 170.5V95.5H769L818 71.5V61H919.5V224.5H818L814 174L792 170.5H712.5ZM712.5 230.5V183H804L809 236L769 255.5H738V230.5L716.5 228.5L712.5 230.5ZM712.5 265.5H769L818 241V230.5H919.5V295H906V331H926L919.5 390H818L814 343.5H784L712.5 338.5V265.5ZM712.5 399V353.5H804L809 399L769 423.5H738V399H712.5ZM712.5 432.5V536.5H914.5V399H818L764 432.5H712.5ZM647.5 5H702.5V741.5H627V588.5H288.5V773H223.5L223.5 5H277.5V25H317.5V105.5L277.5 114V223H647.5V5ZM585 334.5H627V295H585V334.5ZM293.5 334.5H328.5L328.5 295H293.5L293.5 334.5ZM339 526.5V371.5H348.5V390L373 389V371.5H382.5V384H395V371.5L585 371.5V526.5L573 524V495H544.5V516.5H533V495L437.5 495V526.5H424V495H356.5V526.5H339ZM502 482.5H573V384H501.5L502 482.5ZM544.5 691H620V627H597.5V593.5H544.5V691ZM469 679.5H502V691H533V599.5H469V679.5ZM328.5 691H450.5V608H405V599.5H328.5V691Z" stroke="#C3C3C3" stroke-width="8"/>
</svg>
