<svg width="919" height="763" viewBox="0 0 919 763" fill="none" xmlns="http://www.w3.org/2000/svg">
<path d="M914 592.5V371H795.5L770 429H718V518H741.5V540.5H770L801.5 592.5H914Z" fill="#EDEDED"/>
<path d="M783 619.5V599.5L764 555.5H718V645.5H764V619.5H783Z" fill="#EDEDED"/>
<path d="M914 592.5V371H795.5L770 429H718V518H741.5V540.5H770L801.5 592.5H914Z" stroke="#C3C3C3" stroke-width="8"/>
<path d="M783 619.5V599.5L764 555.5H718V645.5H764V619.5H783Z" stroke="#C3C3C3" stroke-width="8"/>
<path d="M763 421L783 383V352.5H763V327H718V421H763Z" fill="#EDEDED"/>
<path d="M794.5 361.5H915L915 221.5H816V231L763 259.5H709.5V315.5H794.5V361.5Z" fill="#EDEDED"/>
<path d="M806.5 221.5L763 246H739.5V221.5H709.5L709.5 177H806.5V221.5Z" fill="#EDEDED"/>
<path d="M816 213.5H915V61.5H816V69.5L763 93H709.5V162.5H794.5L811 168L816 213.5Z" fill="#EDEDED"/>
<path d="M811 66.5L763 87H734V61.5H718V14.5H806.5L811 66.5Z" fill="#EDEDED"/>
<path d="M624.5 213.5L624.5 26.5H591V4H494L494 107.5L524 157.5V213.5H624.5Z" fill="#EDEDED"/>
<path d="M515.5 185V151L494 117.5L450.5 117.5V206.5L494 206.5V185H515.5Z" fill="#EDEDED"/>
<path d="M481 102.5L481 4L335 4V102.5L369.5 157.5V206.5H436V107.5L481 102.5Z" fill="#EDEDED"/>
<path d="M357.5 185V157.5L329 117.5H287V206.5H335V185H357.5Z" fill="#EDEDED"/>
<path d="M211.5 365.5V319.5H188V300.5H154L113.5 317.5L116.5 365.5H211.5Z" fill="#EDEDED"/>
<path d="M214 286V195H161.5V213.5H154V195H145V190H111.5L108 145H4L4 300.5H16.5V315.5H103L154 283H161.5V286H214Z" fill="#EDEDED"/>
<path d="M211.5 467V378H161.5V393.5H154V378H145V373H111.5L103 336H4V496.5H103L154 467V456.5H161.5V467H208.5H211.5Z" fill="#EDEDED"/>
<path d="M208.5 542.5V496.5H188V476H158.5L111.5 505.5L116.5 542.5H208.5Z" fill="#EDEDED"/>
<path fill-rule="evenodd" clip-rule="evenodd" d="M702.5 748.5H632V578L294 578V759H222.5V691.5H148V561.5H222.5L222.5 4H279V26.5H323.5V107.5H279L272.5 139V221.5L638 221.5L638 4H702.5L702.5 748.5ZM580 518H573V486H545.5V510.5H537L538 486H436V518H426V486H351.5V518H341V365.5H580V518ZM591 327H632V286H591V327ZM294 336H329L329 294H294L294 336Z" fill="#EDEDED"/>
<path d="M494 476V378H403.5V396.5H351.5V476H494Z" fill="#EDEDED"/>
<path d="M573 476V378H501.5V476H573Z" fill="#EDEDED"/>
<path d="M621 675V627H597.5V601.5H573V589.5H481V642.5H545.5V675H621Z" fill="#EDEDED"/>
<path d="M469.5 683V595.5L329 595.5V683L469.5 683Z" fill="#EDEDED"/>
<path d="M208.5 542.5V496.5H188V476H158.5L111.5 505.5L116.5 542.5M208.5 542.5H214.5H116.5M208.5 542.5H116.5M763 421L783 383V352.5H763V327H718V421H763ZM794.5 361.5H915L915 221.5H816V231L763 259.5H709.5V315.5H794.5V361.5ZM806.5 221.5L763 246H739.5V221.5H709.5L709.5 177H806.5V221.5ZM816 213.5H915V61.5H816V69.5L763 93H709.5V162.5H794.5L811 168L816 213.5ZM811 66.5L763 87H734V61.5H718V14.5H806.5L811 66.5ZM624.5 213.5L624.5 26.5H591V4H494L494 107.5L524 157.5V213.5H624.5ZM515.5 185V151L494 117.5L450.5 117.5V206.5L494 206.5V185H515.5ZM481 102.5L481 4L335 4V102.5L369.5 157.5V206.5H436V107.5L481 102.5ZM357.5 185V157.5L329 117.5H287V206.5H335V185H357.5ZM214 286V195H161.5V213.5H154V195H145V190H111.5L108 145H4L4 300.5H16.5V315.5H103L154 283H161.5V286H214ZM211.5 365.5V319.5H188V300.5H154L113.5 317.5L116.5 365.5H211.5ZM211.5 467V378H161.5V393.5H154V378H145V373H111.5L103 336H4V496.5H103L154 467V456.5H161.5V467H208.5H211.5ZM702.5 748.5H632V578L294 578V759H222.5V691.5H148V561.5H222.5L222.5 4H279V26.5H323.5V107.5H279L272.5 139V221.5L638 221.5L638 4H702.5L702.5 748.5ZM573 518H580V365.5H341V518H351.5V486H426V518H436V486H538L537 510.5H545.5V486H573V518ZM632 327H591V286H632V327ZM329 336H294L294 294H329L329 336ZM573 476V378H501.5V476H573ZM494 476V378H403.5V396.5H351.5V476H494ZM469.5 683V595.5L329 595.5V683L469.5 683ZM621 675V627H597.5V601.5H573V589.5H481V642.5H545.5V675H621Z" stroke="#C3C3C3" stroke-width="8"/>
</svg>
