<svg width="907" height="730" viewBox="0 0 907 730" fill="none" xmlns="http://www.w3.org/2000/svg">
<path d="M109 174H212V105H189.5H157.5L109 128.5V174Z" fill="#EDEDED" stroke="#C3C3C3" stroke-width="8"/>
<path d="M4 4H212.5L212.5 98.5H161L104.5 125.5V137.5H4V4Z" fill="#EDEDED"/>
<path fill-rule="evenodd" clip-rule="evenodd" d="M690 720.5H618.5V690H579.5V641.5H618.5V601H569.5V604.5H379V644H336V601H289V642H328V688.5H289V726L217 726L217 32L280.5 32V51H324V130.5H280.5V242L690 242L690 720.5ZM569.5 394V552H563.5V518.5H465V541H459.5V518.5H377V544.5H372V518.5H342.5V552H336L336 394H342.5V433.5H396V394H403V433.5H440V394L569.5 394Z" fill="#EDEDED"/>
<path d="M4 4H212.5L212.5 98.5H161L104.5 125.5V137.5H4V4Z" stroke="#C3C3C3" stroke-width="8"/>
<path fill-rule="evenodd" clip-rule="evenodd" d="M690 720.5H618.5V690H579.5V641.5H618.5V601H569.5V604.5H379V644H336V601H289V642H328V688.5H289V726L217 726L217 32L280.5 32V51H324V130.5H280.5V242L690 242L690 720.5ZM569.5 394V552H563.5V518.5H465V541H459.5V518.5H377V544.5H372V518.5H342.5V552H336L336 394H342.5V433.5H396V394H403V433.5H440V394L569.5 394Z" stroke="#C3C3C3" stroke-width="8"/>
<path d="M442 697.5H573.5V611H383V656H442V697.5Z" fill="#EDEDED" stroke="#C3C3C3" stroke-width="8"/>
<path d="M445 513H565.5V400.5H445V513Z" fill="#EDEDED" stroke="#C3C3C3" stroke-width="8"/>
<path d="M342.5 512.5H440.5V438.5H342.5V512.5Z" fill="#EDEDED" stroke="#C3C3C3" stroke-width="8"/>
<path d="M795 499.5H902.5V634H755.5V532L795 511V499.5Z" fill="#EDEDED" stroke="#C3C3C3" stroke-width="8"/>
<path d="M697 535H748.5V633.5H697V535Z" fill="#EDEDED" stroke="#C3C3C3" stroke-width="8"/>
<path d="M752.5 529L790.5 509V463H697V529H752.5Z" fill="#EDEDED" stroke="#C3C3C3" stroke-width="8"/>
<path d="M795.5 361H903V495.5H795.5V458H696.5V393.5H756L795.5 372.5V361Z" fill="#EDEDED" stroke="#C3C3C3" stroke-width="8"/>
<path d="M753 390.5L791 370.5V324.5H697.5V390.5H753Z" fill="#EDEDED" stroke="#C3C3C3" stroke-width="8"/>
<path d="M795.5 223H903V357.5H795.5V320H696.5V255.5L756 255.5L795.5 234.5V223Z" fill="#EDEDED" stroke="#C3C3C3" stroke-width="8"/>
<path d="M753 252.5L791 232.5V186.5H697.5V252.5H753Z" fill="#EDEDED" stroke="#C3C3C3" stroke-width="8"/>
<path d="M114 276.5H6.5L6.5 144H104V183.5L213 181.5V244L153.5 244L114 265V276.5Z" fill="#EDEDED" stroke="#C3C3C3" stroke-width="8"/>
<path d="M157.5 249L117 269L117 311.5H213V249H157.5Z" fill="#EDEDED" stroke="#C3C3C3" stroke-width="8"/>
<path d="M114 411.5H6.5L6.5 281L114 281V318.317L213 316.5V379H153.5L114 400V411.5Z" fill="#EDEDED" stroke="#C3C3C3" stroke-width="8"/>
<path d="M157.5 384L117 404L117 446.5H213V384H157.5Z" fill="#EDEDED" stroke="#C3C3C3" stroke-width="8"/>
<path d="M114 546.5H6.5L6.5 416L114 416V453.317L213 451.5V514H153.5L114 535V546.5Z" fill="#EDEDED" stroke="#C3C3C3" stroke-width="8"/>
<path d="M157.5 519L117 539L117 581.5H213V519H157.5Z" fill="#EDEDED" stroke="#C3C3C3" stroke-width="8"/>
<path d="M795.5 212.5H890V166V151H864.5H836.5L832.5 146L795.5 166V212.5Z" fill="#EDEDED"/>
<path d="M630 180.5L610 141.5L564 141.5V236H624V185L630 180.5Z" fill="#EDEDED"/>
<path d="M795.5 212.5H890V166V151H864.5H836.5L832.5 146L795.5 166V212.5Z" stroke="#C3C3C3" stroke-width="8"/>
<path d="M630 180.5L610 141.5L564 141.5V236H624V185L630 180.5Z" stroke="#C3C3C3" stroke-width="8"/>
<path d="M496 181L476 142H430V236.5H490V185.5L496 181Z" fill="#EDEDED" stroke="#C3C3C3" stroke-width="8"/>
<path d="M834.5 140.5H849.5V29L598.5 29V137.5H612.5L635.5 182L630 185V212V237H691V179.5L790.5 179.5V164L834.5 140.5Z" fill="#EDEDED" stroke="#C3C3C3" stroke-width="8"/>
<path d="M558.5 137H592.5V30.5L463.5 30.5V137H477.5L501.5 182.5L496 185.5V236.5H558.5V137Z" fill="#EDEDED" stroke="#C3C3C3" stroke-width="8"/>
<path d="M362.5 181L342.5 142H296.5V236.5H356.5V185.5L362.5 181Z" fill="#EDEDED" stroke="#C3C3C3" stroke-width="8"/>
<path d="M425 137H459V30.5L330 30.5V137H344L368 182.5L362.5 185.5V236.5H425V137Z" fill="#EDEDED" stroke="#C3C3C3" stroke-width="8"/>
<path d="M211.5 4L6 4" stroke="#C3C3C3" stroke-width="8"/>
<path d="M118.5 716H212L212 589H112.5V550H6L6 681.5H118.5V716Z" fill="#EDEDED" stroke="#C3C3C3" stroke-width="8"/>
</svg>
