<svg width="907" height="770" viewBox="0 0 907 770" fill="none" xmlns="http://www.w3.org/2000/svg">
<path d="M109 174L212 174V105H189.5L157.5 105L109 128.5L109 174Z" fill="#EDEDED" stroke="#C3C3C3" stroke-width="8"/>
<path d="M4 4.00049H212.5V98.5005H161L104.5 125.5V137.5H4V4.00049Z" fill="#EDEDED"/>
<path fill-rule="evenodd" clip-rule="evenodd" d="M690 720.5H618.5V690H579.5V641.5H618.5V601H569.5V604.5H379V644L336 644V601H289V642H328V703.001H289V726H217L217 32.0005H280.5V51.0005H324V130.5H280.5V242L690 242L690 720.5ZM569.5 394V552H563.5V518.5H465V541H459.5V518.5H377V544.5H372V518.5H342.5V552H336V394H342.5V433.5H396V394H403V433.5H440V394L569.5 394Z" fill="#EDEDED"/>
<path d="M4 4.00049H212.5V98.5005H161L104.5 125.5V137.5H4V4.00049Z" stroke="#C3C3C3" stroke-width="8"/>
<path fill-rule="evenodd" clip-rule="evenodd" d="M690 720.5H618.5V690H579.5V641.5H618.5V601H569.5V604.5H379V644L336 644V601H289V642H328V703.001H289V726H217L217 32.0005H280.5V51.0005H324V130.5H280.5V242L690 242L690 720.5ZM569.5 394V552H563.5V518.5H465V541H459.5V518.5H377V544.5H372V518.5H342.5V552H336V394H342.5V433.5H396V394H403V433.5H440V394L569.5 394Z" stroke="#C3C3C3" stroke-width="8"/>
<path d="M442 697.501H573.5V611.001H383V656.001H442V697.501Z" fill="#EDEDED" stroke="#C3C3C3" stroke-width="8"/>
<path d="M445 513.001H565.5V400.501H445V513.001Z" fill="#EDEDED" stroke="#C3C3C3" stroke-width="8"/>
<path d="M342.5 512.501H440.5V438.501H342.5V512.501Z" fill="#EDEDED" stroke="#C3C3C3" stroke-width="8"/>
<path d="M795 499.501H902.5V634.001H755.5V532.001L795 511.001V499.501Z" fill="#EDEDED" stroke="#C3C3C3" stroke-width="8"/>
<path d="M697 535.001H748.5V633.501H697V535.001Z" fill="#EDEDED" stroke="#C3C3C3" stroke-width="8"/>
<path d="M752.5 529.001L790.5 509.001V463.001H697V529.001H752.5Z" fill="#EDEDED" stroke="#C3C3C3" stroke-width="8"/>
<path d="M795.5 361.001H903V495.501H795.5V458.001L696.5 458.001V393.501L756 393.501L795.5 372.501V361.001Z" fill="#EDEDED" stroke="#C3C3C3" stroke-width="8"/>
<path d="M753 390.501L791 370.501V324.501H697.5V390.501H753Z" fill="#EDEDED" stroke="#C3C3C3" stroke-width="8"/>
<path d="M795.5 223L903 223V357.5H795.5V320L696.5 320V255.5L756 255.5L795.5 234.5V223Z" fill="#EDEDED" stroke="#C3C3C3" stroke-width="8"/>
<path d="M753 252.5L791 232.5V186.5H697.5V252.5L753 252.5Z" fill="#EDEDED" stroke="#C3C3C3" stroke-width="8"/>
<path d="M114 276.5H6.5L6.5 144L104 144L104 183.5L213 181.5L213 244L153.5 244L114 265V276.5Z" fill="#EDEDED" stroke="#C3C3C3" stroke-width="8"/>
<path d="M157.5 249L117 269L117 311.5H213V249L157.5 249Z" fill="#EDEDED" stroke="#C3C3C3" stroke-width="8"/>
<path d="M114 411.501H6.5L6.5 281L114 281.001V318.317L213 316.501L213 379.001L153.5 379.001L114 400.001V411.501Z" fill="#EDEDED" stroke="#C3C3C3" stroke-width="8"/>
<path d="M157.5 384.001L117 404.001L117 446.501H213V384.001H157.5Z" fill="#EDEDED" stroke="#C3C3C3" stroke-width="8"/>
<path d="M114 546.501H6.5L6.5 416.001L114 416.001V453.318L213 451.501L213 514.001H153.5L114 535.001V546.501Z" fill="#EDEDED" stroke="#C3C3C3" stroke-width="8"/>
<path d="M157.5 519.001L117 539.001L117 581.501H213V519.001H157.5Z" fill="#EDEDED" stroke="#C3C3C3" stroke-width="8"/>
<path d="M140 701.502V712.501H26.5001L26.5 612.001H6.5L6.5 551.001L114 551.001V588.318L213 586.501L213 656.502H159.5L140 701.502Z" fill="#EDEDED" stroke="#C3C3C3" stroke-width="8"/>
<path d="M162 663.002L145.5 702.002V736.002L145.5 765.502H213V663.002L162 663.002Z" fill="#EDEDED" stroke="#C3C3C3" stroke-width="8"/>
<path d="M795.5 212.5L890 212.5V166V151H864.5H836.5L832.5 146L795.5 166V212.5Z" fill="#EDEDED"/>
<path d="M630 180.5L610 141.5H564V236H624V185L630 180.5Z" fill="#EDEDED"/>
<path d="M795.5 212.5L890 212.5V166V151H864.5H836.5L832.5 146L795.5 166V212.5Z" stroke="#C3C3C3" stroke-width="8"/>
<path d="M630 180.5L610 141.5H564V236H624V185L630 180.5Z" stroke="#C3C3C3" stroke-width="8"/>
<path d="M496 181L476 142H430V236.5H490V185.5L496 181Z" fill="#EDEDED" stroke="#C3C3C3" stroke-width="8"/>
<path d="M834.5 140.5H849.5V29.0005L598.5 29.0005V137.5H612.5L635.5 182L630 185V212V237H691V179.5L790.5 179.5V164L834.5 140.5Z" fill="#EDEDED" stroke="#C3C3C3" stroke-width="8"/>
<path d="M558.5 137H592.5V30.5005L463.5 30.5005V137L477.5 137L501.5 182.5L496 185.5V236.5L558.5 236.5V137Z" fill="#EDEDED" stroke="#C3C3C3" stroke-width="8"/>
<path d="M362.5 181L342.5 142H296.5V236.5H356.5V185.5L362.5 181Z" fill="#EDEDED" stroke="#C3C3C3" stroke-width="8"/>
<path d="M425 137H459L459 30.5005L330 30.5005V137L344 137L368 182.5L362.5 185.5V236.5L425 236.5V137Z" fill="#EDEDED" stroke="#C3C3C3" stroke-width="8"/>
<path d="M211.5 4L6 4" stroke="#C3C3C3" stroke-width="8"/>
</svg>
