<svg width="907" height="730" viewBox="0 0 907 730" fill="none" xmlns="http://www.w3.org/2000/svg">
<path d="M797.5 174H694.5V105H717H749L797.5 128.5V174Z" fill="#EDEDED" stroke="#C3C3C3" stroke-width="8"/>
<path d="M6 348V475.5H112V457.5L156.5 440L161.5 444.5H208V382H112V348H6Z" fill="#EDEDED" stroke="#C3C3C3" stroke-width="8"/>
<path d="M902.5 4H694V98.5H745.5L802 125.5V137.5H902.5V4Z" fill="#EDEDED"/>
<path fill-rule="evenodd" clip-rule="evenodd" d="M288 720.5H216.5V242H626V130.5H582.5V51H626V32H689.5V726H617.5V688.5H578.5V642H617.5V601H570.5H530.5H376.5V644H337V601H288V641.5H327V690H288V720.5ZM337 394V552H343V518.5H371V544.5H376.5V518.5H441.5H447H459V540H464.5V518.5H530.5H564V552H570.5V394H564H510.5H503.5H438.5V433.5H402V394H396.5V433.5H343V394H337Z" fill="#EDEDED"/>
<path d="M564 394H510.5H503.5H438.5V433.5H402V394H396.5V433.5H343V394H337V552H343V518.5H371V544.5H376.5V518.5H441.5H447H459V540H464.5V518.5H530.5H564V552H570.5V394H564ZM564 394V433.5M694 4H902.5V137.5H802V125.5L745.5 98.5H694V4ZM216.5 720.5H288V690H327V641.5H288V601H337V644H376.5V601H530.5H570.5H617.5V642H578.5V688.5H617.5V726H689.5V32H626V51H582.5V130.5H626V242H216.5V720.5Z" stroke="#C3C3C3" stroke-width="8"/>
<path d="M523.5 611H383.5V655H442.5V697.5H574V652.5V611H523.5Z" fill="#EDEDED" stroke="#C3C3C3" stroke-width="8"/>
<path d="M443.5 513H564V400.5H443.5V513Z" fill="#EDEDED" stroke="#C3C3C3" stroke-width="8"/>
<path d="M341 512.5H439V438.5H341V512.5Z" fill="#EDEDED" stroke="#C3C3C3" stroke-width="8"/>
<path d="M111.5 482.5H4V612H111.5V639H160.5V524H111.5V482.5Z" fill="#EDEDED"/>
<path d="M210.5 645.5H101.5V712.5H210.5V645.5Z" fill="#EDEDED"/>
<path d="M111.5 482.5H4V612H111.5V639H160.5V524H111.5V482.5Z" stroke="#C3C3C3" stroke-width="8"/>
<path d="M210.5 645.5H101.5V712.5H210.5V645.5Z" stroke="#C3C3C3" stroke-width="8"/>
<path d="M111.5 482.5H4V612H111.5V639H160.5V524H111.5V482.5Z" fill="#EDEDED"/>
<path d="M210.5 645.5H101.5V712.5H210.5V645.5Z" fill="#EDEDED"/>
<path d="M111.5 482.5H4V612H111.5V639H160.5V524H111.5V482.5Z" stroke="#C3C3C3" stroke-width="8"/>
<path d="M210.5 645.5H101.5V712.5H210.5V645.5Z" stroke="#C3C3C3" stroke-width="8"/>
<path d="M209.5 524H165.5V639H209.5V524Z" fill="#EDEDED" stroke="#C3C3C3" stroke-width="8"/>
<path d="M153 512.5H116V463L153 447L159 453.5H209.5V463V512.5H153Z" fill="#EDEDED" stroke="#C3C3C3" stroke-width="8"/>
<path d="M153.5 374.5H116.5V325L153.5 309L159.5 315.5H210V325V374.5H153.5Z" fill="#EDEDED" stroke="#C3C3C3" stroke-width="8"/>
<path d="M792.5 276.5H900V144H802.5V183.5L693.5 181.5V244H753L792.5 265V276.5Z" fill="#EDEDED" stroke="#C3C3C3" stroke-width="8"/>
<path d="M749 249L789.5 269V311.5H693.5V249H749Z" fill="#EDEDED" stroke="#C3C3C3" stroke-width="8"/>
<path d="M792.5 411.5H900V281L792.5 281V318.317L693.5 316.5V379H753L792.5 400V411.5Z" fill="#EDEDED" stroke="#C3C3C3" stroke-width="8"/>
<path d="M749 384L789.5 404V446.5H693.5V384H749Z" fill="#EDEDED" stroke="#C3C3C3" stroke-width="8"/>
<path d="M792.5 546.5H900V416L792.5 416V453.317L693.5 451.5V514H753L792.5 535V546.5Z" fill="#EDEDED" stroke="#C3C3C3" stroke-width="8"/>
<path d="M749 519L789.5 539V581.5H693.5V519H749Z" fill="#EDEDED" stroke="#C3C3C3" stroke-width="8"/>
<path d="M106 208H11.5V160H35.5V141.5H72L106 160V208Z" fill="#EDEDED"/>
<path d="M276.5 180.5L296.5 141.5H342.5V236H282.5V185L276.5 180.5Z" fill="#EDEDED"/>
<path d="M106 208H11.5V160H35.5V141.5H72L106 160V208Z" stroke="#C3C3C3" stroke-width="8"/>
<path d="M276.5 180.5L296.5 141.5H342.5V236H282.5V185L276.5 180.5Z" stroke="#C3C3C3" stroke-width="8"/>
<path d="M410.5 181L430.5 142H476.5V236.5H416.5V185.5L410.5 181Z" fill="#EDEDED" stroke="#C3C3C3" stroke-width="8"/>
<path d="M68.5 131.5H53V29H308V137.5H294L271 182L276.5 185V212V237H215.5L217 210H163.5H116V158.5L68.5 131.5Z" fill="#EDEDED" stroke="#C3C3C3" stroke-width="8"/>
<path d="M348 137H314V30.5H443V137H429L405 182.5L410.5 185.5V236.5H348V137Z" fill="#EDEDED" stroke="#C3C3C3" stroke-width="8"/>
<path d="M544 181L564 142H610V236.5H550V185.5L544 181Z" fill="#EDEDED" stroke="#C3C3C3" stroke-width="8"/>
<path d="M481.5 137H447.5V30.5H576.5V137H562.5L538.5 182.5L544 185.5V236.5H481.5V137Z" fill="#EDEDED" stroke="#C3C3C3" stroke-width="8"/>
<path d="M695 4H900.5" stroke="#C3C3C3" stroke-width="8"/>
<path d="M788 716H694.5V589H794V550H900.5V681.5H788V716Z" fill="#EDEDED" stroke="#C3C3C3" stroke-width="8"/>
<path d="M210.5 216.5H4.5V342H112.5V324.5L157.5 304.5L162 310.5H210.5V216.5Z" fill="#EDEDED" stroke="#C3C3C3" stroke-width="8"/>
</svg>
