<svg width="920" height="771" viewBox="0 0 920 771" fill="none" xmlns="http://www.w3.org/2000/svg">
<path fill-rule="evenodd" clip-rule="evenodd" d="M694.25 720.75H622.75L622.75 704.75L583.75 704.75V641.75H622.75V601.25H573.75V604.75L383.25 604.75H293.25L293.25 642.25H332.25V704.75L293.25 704.75V726.25H221.25L223.25 242.25L633.75 242.25V138.25H589.75V50.25H633.75V22.25H680.25V31.75H694.25L694.25 720.75ZM573.75 394.25L573.75 552.25H570.75V518.75H541.25V544.75H536.25V518.75H455.75V541.75H450.75V518.75L346.75 518.75V552.25H340.25L340.25 394.25L418.75 394.25H474.25V433.75H512.75V394.25H517.75V433.75H570.75V394.25H573.75Z" fill="#EDEDED" stroke="#C3C3C3" stroke-width="8"/>
<path d="M581.75 703.75L581.75 611.25L338.75 611.25V703.75L581.75 703.75Z" fill="#EDEDED" stroke="#C3C3C3" stroke-width="8"/>
<path d="M475.25 513.25H569.75V442.25H475.25V513.25Z" fill="#EDEDED" stroke="#C3C3C3" stroke-width="8"/>
<path d="M347.25 513.25H468.25L468.25 401.25H347.25V513.25Z" fill="#EDEDED" stroke="#C3C3C3" stroke-width="8"/>
<path d="M567.25 140.75H582.75L582.75 33.75L455.25 33.75L455.25 137.25L489.75 137.25V239.25L543.75 239.25V182.75L567.25 140.75Z" fill="#EDEDED" stroke="#C3C3C3" stroke-width="8"/>
<path d="M618.25 239.25V144.75H572.25L548.25 188.25V239.25L618.25 239.25Z" fill="#EDEDED" stroke="#C3C3C3" stroke-width="8"/>
<path d="M432.25 139.75H447.75L447.75 32.75L320.25 32.75L320.25 136.25L354.75 136.25V238.25L408.75 238.25V181.75L432.25 139.75Z" fill="#EDEDED" stroke="#C3C3C3" stroke-width="8"/>
<path d="M296.75 140.75H312.25L312.25 33.75L58.25 33.75L58.25 133.75H72.25L116.75 157.25L116.75 213.75L219.25 213.75V239.25L273.25 239.25V182.75L296.75 140.75Z" fill="#EDEDED" stroke="#C3C3C3" stroke-width="8"/>
<path d="M215.75 310.75L215.75 217.75L6.25 217.75L6.25 341.75L117.75 341.75V330.75L163.75 310.75H215.75Z" fill="#EDEDED" stroke="#C3C3C3" stroke-width="8"/>
<path d="M483.25 238.25V143.75H437.25L413.25 187.25V238.25L483.25 238.25Z" fill="#EDEDED" stroke="#C3C3C3" stroke-width="8"/>
<path d="M915.25 140.25V4.25L699.75 4.25V99.25L752.25 99.25L808.75 126.25V140.25H845.25L915.25 140.25Z" fill="#EDEDED" stroke="#C3C3C3" stroke-width="8"/>
<path d="M804.75 176.25V129.75L757.25 105.75L701.75 105.75V176.25L804.75 176.25Z" fill="#EDEDED" stroke="#C3C3C3" stroke-width="8"/>
<path d="M804.75 176.25V129.75L757.25 105.75L701.75 105.75V176.25L804.75 176.25Z" fill="#EDEDED" stroke="#C3C3C3" stroke-width="8"/>
<path d="M915.25 276.75V147.25L810.75 147.25V182.75L699.75 182.75V245.25H752.75L757.75 238.75L800.75 263.75V276.75L915.25 276.75Z" fill="#EDEDED" stroke="#C3C3C3" stroke-width="8"/>
<path d="M794.75 311.25V264.75L759.25 244.25L754.75 251.25L700.25 251.25V311.25H794.75Z" fill="#EDEDED" stroke="#C3C3C3" stroke-width="8"/>
<path d="M915.25 412.75V283.25H800.75V318.75L699.75 318.75V381.25H752.75L757.75 374.75L800.75 399.75V412.75L915.25 412.75Z" fill="#EDEDED" stroke="#C3C3C3" stroke-width="8"/>
<path d="M794.75 447.25V400.75L759.25 380.25L754.75 387.25H700.25V447.25H794.75Z" fill="#EDEDED" stroke="#C3C3C3" stroke-width="8"/>
<path d="M915.25 547.75V418.25H800.75V453.75L699.75 453.75V516.25L752.75 516.25L757.75 509.75L800.75 534.75V547.75H915.25Z" fill="#EDEDED" stroke="#C3C3C3" stroke-width="8"/>
<path d="M914.25 712.25L914.25 552.75L801.75 552.75V587.75L700.75 587.75V658.25L756.25 658.25L777.25 704.75V712.25L914.25 712.25Z" fill="#EDEDED" stroke="#C3C3C3" stroke-width="8"/>
<path d="M772.25 766.25L772.25 708.75L753.25 663.25L733.75 674.75H708.25L708.25 766.25L772.25 766.25Z" fill="#EDEDED" stroke="#C3C3C3" stroke-width="8"/>
<path d="M794.75 582.25V535.75L759.25 515.25L754.75 522.25H700.25V582.25H794.75Z" fill="#EDEDED" stroke="#C3C3C3" stroke-width="8"/>
<path d="M348.25 238.25V143.75H302.25L278.25 187.25V238.25L348.25 238.25Z" fill="#EDEDED" stroke="#C3C3C3" stroke-width="8"/>
<path d="M18.75 211.25L111.75 211.25L111.75 162.183L68.9405 139.25L18.75 139.25L18.75 211.25Z" fill="#EDEDED" stroke="#C3C3C3" stroke-width="8"/>
<path d="M122.25 377.25L215.25 377.25L215.25 315.25L164.25 315.25L122.25 335.25L122.25 377.25Z" fill="#EDEDED" stroke="#C3C3C3" stroke-width="8"/>
<path d="M214.25 448.75L214.25 385.25H116.25L116.25 349.75L4.75 349.75L4.75 479.75L116.25 479.75V468.75L162.25 448.75H214.25Z" fill="#EDEDED" stroke="#C3C3C3" stroke-width="8"/>
<path d="M213.75 453.25L162.75 453.25L120.75 473.25L120.75 508.25L158.25 525.25L213.75 525.25L213.75 453.25Z" fill="#EDEDED" stroke="#C3C3C3" stroke-width="8"/>
<path d="M116.25 484.75L116.25 515.25L154.75 532.75L154.75 640.25L29.2501 640.25L29.2501 617.25L5.74999 617.25L5.75 484.75L116.25 484.75Z" fill="#EDEDED" stroke="#C3C3C3" stroke-width="8"/>
<path d="M162.25 532.75L213.75 532.75L213.75 640.25L162.25 640.25L162.25 532.75Z" fill="#EDEDED" stroke="#C3C3C3" stroke-width="8"/>
</svg>
