<svg width="919" height="730" viewBox="0 0 919 730" fill="none" xmlns="http://www.w3.org/2000/svg">
<path fill-rule="evenodd" clip-rule="evenodd" d="M693.5 720.5H622V690H583V641.5H622V601H573V604.5H382.5H292.5V642H331.5V688.5H292.5V726L220.5 726L222.5 242L633 242L633 138H589V50H633V22H679.5V31.5H693.5L693.5 720.5ZM573 394V552H570V518.5H540.5V544.5H535.5V518.5H455V541.5H450V518.5H346V552H339.5L339.5 394H418L473.5 394V433.5H512V394H517V433.5H570V394H573Z" fill="#EDEDED" stroke="#C3C3C3" stroke-width="8"/>
<path d="M470 656H529V611H338.5V698H470V656Z" fill="#EDEDED" stroke="#C3C3C3" stroke-width="8"/>
<path d="M474.5 513H569V442H474.5V513Z" fill="#EDEDED" stroke="#C3C3C3" stroke-width="8"/>
<path d="M346.5 513H467.5V401H346.5V513Z" fill="#EDEDED" stroke="#C3C3C3" stroke-width="8"/>
<path d="M566.5 140.5H582V33.5L454.5 33.5V137H489V239H543V182.5L566.5 140.5Z" fill="#EDEDED" stroke="#C3C3C3" stroke-width="8"/>
<path d="M617.5 239V144.5H571.5L547.5 188V239H617.5Z" fill="#EDEDED" stroke="#C3C3C3" stroke-width="8"/>
<path d="M431.5 139.5H447V32.5L319.5 32.5V136H354V238H408V181.5L431.5 139.5Z" fill="#EDEDED" stroke="#C3C3C3" stroke-width="8"/>
<path d="M296 140.5H311.5V33.5L57.5 33.5L57.5 133.5H71.5L116 157V213.5L218.5 213.5V239H272.5V182.5L296 140.5Z" fill="#EDEDED" stroke="#C3C3C3" stroke-width="8"/>
<path d="M215 310.5L215 217.5L5.5 217.5L5.5 341.5H117V330.5L163 310.5H215Z" fill="#EDEDED" stroke="#C3C3C3" stroke-width="8"/>
<path d="M482.5 238V143.5H436.5L412.5 187V238H482.5Z" fill="#EDEDED" stroke="#C3C3C3" stroke-width="8"/>
<path d="M914.5 140V4L699 4V99H751.5L808 126V140H844.5H914.5Z" fill="#EDEDED" stroke="#C3C3C3" stroke-width="8"/>
<path d="M804 176V129.5L756.5 105.5L701 105.5V176H804Z" fill="#EDEDED" stroke="#C3C3C3" stroke-width="8"/>
<path d="M804 176V129.5L756.5 105.5L701 105.5V176H804Z" fill="#EDEDED" stroke="#C3C3C3" stroke-width="8"/>
<path d="M914.5 276.5V147H810V182.5L699 182.5V245H752L757 238.5L800 263.5V276.5H914.5Z" fill="#EDEDED" stroke="#C3C3C3" stroke-width="8"/>
<path d="M794 311V264.5L758.5 244L754 251H699.5V311H794Z" fill="#EDEDED" stroke="#C3C3C3" stroke-width="8"/>
<path d="M914.5 412.5V283H800V318.5H699V381H752L757 374.5L800 399.5V412.5H914.5Z" fill="#EDEDED" stroke="#C3C3C3" stroke-width="8"/>
<path d="M794 447V400.5L758.5 380L754 387H699.5V447H794Z" fill="#EDEDED" stroke="#C3C3C3" stroke-width="8"/>
<path d="M914.5 547.5V418H800V453.5H699V516H752L757 509.5L800 534.5V547.5H914.5Z" fill="#EDEDED" stroke="#C3C3C3" stroke-width="8"/>
<path d="M794 582V535.5L758.5 515L754 522H699.5V582H794Z" fill="#EDEDED" stroke="#C3C3C3" stroke-width="8"/>
<path d="M347.5 238V143.5H301.5L277.5 187V238H347.5Z" fill="#EDEDED" stroke="#C3C3C3" stroke-width="8"/>
<path d="M17.5 206L110.5 206L110.5 160.341L67.6905 139L17.5 139L17.5 206Z" fill="#EDEDED" stroke="#C3C3C3" stroke-width="8"/>
<path d="M121.5 377L214.5 377L214.5 315L163.5 315L121.5 335L121.5 377Z" fill="#EDEDED" stroke="#C3C3C3" stroke-width="8"/>
<path d="M213.5 448.5V385H115.5V349.5H4L4 479.5H115.5V468.5L161.5 448.5H213.5Z" fill="#EDEDED" stroke="#C3C3C3" stroke-width="8"/>
<path d="M120 515L213 515L213 453L162 453L120 473L120 515Z" fill="#EDEDED" stroke="#C3C3C3" stroke-width="8"/>
<path d="M115.5 484.5L115.5 525L165 525L165 640L115.5 640L115.5 614L5.00006 614L5 484.5L115.5 484.5Z" fill="#EDEDED" stroke="#C3C3C3" stroke-width="8"/>
<path d="M214.5 632L169.5 632L169.5 527L214.5 527L214.5 632Z" fill="#EDEDED" stroke="#C3C3C3" stroke-width="8"/>
<path d="M214.5 715L106.5 715L106.5 645L214.5 645L214.5 715Z" fill="#EDEDED" stroke="#C3C3C3" stroke-width="8"/>
</svg>
