<svg width="908" height="771" viewBox="0 0 908 771" fill="none" xmlns="http://www.w3.org/2000/svg">
<path d="M109.251 174.749L212.251 174.749V105.749H189.751L157.751 105.749L109.251 129.249L109.251 174.749Z" fill="#EDEDED" stroke="#C3C3C3" stroke-width="8"/>
<path d="M4.25073 4.74976H212.751V99.2498H161.251L104.751 126.25V138.25H4.25073V4.74976Z" fill="#EDEDED"/>
<path fill-rule="evenodd" clip-rule="evenodd" d="M690.251 721.25H618.751V690.75H579.751V642.25H618.751V601.75H569.751V608.251L336.251 608.251V601.75H289.251V642.75H328.251V703.75H289.251V726.75H217.251L217.251 32.7498H280.751V51.7498H324.251V131.25H280.751V242.75L690.251 242.75L690.251 721.25ZM569.751 394.75V552.75H563.751V519.25H465.251V541.75H459.751V519.25H377.251V545.25H372.251V519.25H342.751V552.75H336.251V394.75H342.751V434.25H396.251V394.75H403.251V434.25H440.251V394.75L569.751 394.75Z" fill="#EDEDED"/>
<path d="M4.25073 4.74976H212.751V99.2498H161.251L104.751 126.25V138.25H4.25073V4.74976Z" stroke="#C3C3C3" stroke-width="8"/>
<path fill-rule="evenodd" clip-rule="evenodd" d="M690.251 721.25H618.751V690.75H579.751V642.25H618.751V601.75H569.751V608.251L336.251 608.251V601.75H289.251V642.75H328.251V703.75H289.251V726.75H217.251L217.251 32.7498H280.751V51.7498H324.251V131.25H280.751V242.75L690.251 242.75L690.251 721.25ZM569.751 394.75V552.75H563.751V519.25H465.251V541.75H459.751V519.25H377.251V545.25H372.251V519.25H342.751V552.75H336.251V394.75H342.751V434.25H396.251V394.75H403.251V434.25H440.251V394.75L569.751 394.75Z" stroke="#C3C3C3" stroke-width="8"/>
<path d="M337.251 698.25L573.751 698.25V611.75L337.251 611.75V698.25Z" fill="#EDEDED" stroke="#C3C3C3" stroke-width="8"/>
<path d="M445.251 513.75H565.751V401.25H445.251V513.75Z" fill="#EDEDED" stroke="#C3C3C3" stroke-width="8"/>
<path d="M342.751 513.25H440.751V439.25H342.751V513.25Z" fill="#EDEDED" stroke="#C3C3C3" stroke-width="8"/>
<path d="M795.251 500.25H902.751V634.75H755.751V532.75L795.251 511.75V500.25Z" fill="#EDEDED" stroke="#C3C3C3" stroke-width="8"/>
<path d="M697.251 535.75H748.751V634.25H697.251V535.75Z" fill="#EDEDED" stroke="#C3C3C3" stroke-width="8"/>
<path d="M752.751 529.75L790.751 509.75V463.75H697.251V529.75H752.751Z" fill="#EDEDED" stroke="#C3C3C3" stroke-width="8"/>
<path d="M795.751 361.75H903.251V496.25H795.751V458.75L696.751 458.75V394.25L756.251 394.25L795.751 373.25V361.75Z" fill="#EDEDED" stroke="#C3C3C3" stroke-width="8"/>
<path d="M753.251 391.25L791.251 371.25V325.25H697.751V391.25H753.251Z" fill="#EDEDED" stroke="#C3C3C3" stroke-width="8"/>
<path d="M795.751 223.75L903.251 223.75V358.25H795.751V320.75L696.751 320.75V256.25L756.251 256.25L795.751 235.25V223.75Z" fill="#EDEDED" stroke="#C3C3C3" stroke-width="8"/>
<path d="M753.251 253.249L791.251 233.249V187.249H697.751V253.249L753.251 253.249Z" fill="#EDEDED" stroke="#C3C3C3" stroke-width="8"/>
<path d="M114.251 277.249H6.75073L6.75073 144.749L104.251 144.749L104.251 184.249L213.251 182.249L213.251 244.749L153.751 244.749L114.251 265.749V277.249Z" fill="#EDEDED" stroke="#C3C3C3" stroke-width="8"/>
<path d="M157.751 249.749L117.251 269.749L117.251 312.249H213.251V249.749L157.751 249.749Z" fill="#EDEDED" stroke="#C3C3C3" stroke-width="8"/>
<path d="M114.251 412.25H6.75073L6.75073 281.75L114.251 281.75V319.066L213.251 317.25L213.251 379.75L153.751 379.75L114.251 400.75V412.25Z" fill="#EDEDED" stroke="#C3C3C3" stroke-width="8"/>
<path d="M157.751 384.75L117.251 404.75L117.251 447.25H213.251V384.75H157.751Z" fill="#EDEDED" stroke="#C3C3C3" stroke-width="8"/>
<path d="M114.251 547.25H6.75073L6.75073 416.75L114.251 416.75V454.067L213.251 452.25L213.251 514.75H153.751L114.251 535.75V547.25Z" fill="#EDEDED" stroke="#C3C3C3" stroke-width="8"/>
<path d="M157.751 519.75L117.251 539.75L117.251 582.25H213.251V519.75H157.751Z" fill="#EDEDED" stroke="#C3C3C3" stroke-width="8"/>
<path d="M140.251 702.251V713.25H26.7508L26.7508 612.75H6.75074L6.75073 551.75L114.251 551.75V589.067L213.251 587.25L213.251 657.251H159.751L140.251 702.251Z" fill="#EDEDED" stroke="#C3C3C3" stroke-width="8"/>
<path d="M162.251 663.751L145.751 702.751V736.751L145.751 766.251H213.251V663.751L162.251 663.751Z" fill="#EDEDED" stroke="#C3C3C3" stroke-width="8"/>
<path d="M795.751 213.249L890.251 213.249V166.749V151.749H864.751H836.751L832.751 146.749L795.751 166.749V213.249Z" fill="#EDEDED"/>
<path d="M630.251 181.249L610.251 142.249H564.251V236.749H624.251V185.749L630.251 181.249Z" fill="#EDEDED"/>
<path d="M795.751 213.249L890.251 213.249V166.749V151.749H864.751H836.751L832.751 146.749L795.751 166.749V213.249Z" stroke="#C3C3C3" stroke-width="8"/>
<path d="M630.251 181.249L610.251 142.249H564.251V236.749H624.251V185.749L630.251 181.249Z" stroke="#C3C3C3" stroke-width="8"/>
<path d="M496.251 181.749L476.251 142.749H430.251V237.249H490.251V186.249L496.251 181.749Z" fill="#EDEDED" stroke="#C3C3C3" stroke-width="8"/>
<path d="M834.751 141.249H849.751V29.7493L598.751 29.7493V138.249H612.751L635.751 182.749L630.251 185.749V212.749V237.749H691.251V180.249L790.751 180.249V164.749L834.751 141.249Z" fill="#EDEDED" stroke="#C3C3C3" stroke-width="8"/>
<path d="M558.751 137.749H592.751V31.2493L463.751 31.2493V137.749L477.751 137.749L501.751 183.249L496.251 186.249V237.249L558.751 237.249V137.749Z" fill="#EDEDED" stroke="#C3C3C3" stroke-width="8"/>
<path d="M362.751 181.749L342.751 142.749H296.751V237.249H356.751V186.249L362.751 181.749Z" fill="#EDEDED" stroke="#C3C3C3" stroke-width="8"/>
<path d="M425.251 137.749H459.251L459.251 31.2493L330.251 31.2493V137.749L344.251 137.749L368.251 183.249L362.751 186.249V237.249L425.251 237.249V137.749Z" fill="#EDEDED" stroke="#C3C3C3" stroke-width="8"/>
<path d="M211.751 4.74927L6.25073 4.74927" stroke="#C3C3C3" stroke-width="8"/>
</svg>
