<svg width="907" height="730" viewBox="0 0 907 730" fill="none" xmlns="http://www.w3.org/2000/svg">
<path d="M109 174L212 174L212 105L189.5 105L157.5 105L109 128.5L109 174Z" fill="#EDEDED" stroke="#C3C3C3" stroke-width="8"/>
<path d="M4.00006 3.99994L212.5 3.99996L212.5 98.5L161 98.5L104.5 125.5L104.5 137.5L4.00005 137.5L4.00006 3.99994Z" fill="#EDEDED"/>
<path fill-rule="evenodd" clip-rule="evenodd" d="M690 720.5L618.5 720.5L618.5 690L579.5 690L579.5 641.5L618.5 641.5L618.5 601L569.5 601L569.5 604.5L379 604.5L379 644L336 644L336 601L289 601L289 642L328 642L328 688.5L289 688.5L289 726L217 726L217 32L280.5 32L280.5 51L324 51L324 130.5L280.5 130.5L280.5 242L690 242L690 720.5ZM569.5 394L569.5 552L563.5 552L563.5 518.5L465 518.5L465 541L459.5 541L459.5 518.5L377 518.5L377 544.5L372 544.5L372 518.5L342.5 518.5L342.5 552L336 552L336 394L342.5 394L342.5 433.5L396 433.5L396 394L403 394L403 433.5L440 433.5L440 394L569.5 394Z" fill="#EDEDED"/>
<path d="M4.00006 3.99994L212.5 3.99996L212.5 98.5L161 98.5L104.5 125.5L104.5 137.5L4.00005 137.5L4.00006 3.99994Z" stroke="#C3C3C3" stroke-width="8"/>
<path fill-rule="evenodd" clip-rule="evenodd" d="M690 720.5L618.5 720.5L618.5 690L579.5 690L579.5 641.5L618.5 641.5L618.5 601L569.5 601L569.5 604.5L379 604.5L379 644L336 644L336 601L289 601L289 642L328 642L328 688.5L289 688.5L289 726L217 726L217 32L280.5 32L280.5 51L324 51L324 130.5L280.5 130.5L280.5 242L690 242L690 720.5ZM569.5 394L569.5 552L563.5 552L563.5 518.5L465 518.5L465 541L459.5 541L459.5 518.5L377 518.5L377 544.5L372 544.5L372 518.5L342.5 518.5L342.5 552L336 552L336 394L342.5 394L342.5 433.5L396 433.5L396 394L403 394L403 433.5L440 433.5L440 394L569.5 394Z" stroke="#C3C3C3" stroke-width="8"/>
<path d="M442 697.5L573.5 697.5L573.5 611L383 611L383 656L442 656L442 697.5Z" fill="#EDEDED" stroke="#C3C3C3" stroke-width="8"/>
<path d="M445 513L565.5 513L565.5 400.5L445 400.5L445 513Z" fill="#EDEDED" stroke="#C3C3C3" stroke-width="8"/>
<path d="M342.5 512.5L440.5 512.5L440.5 438.5L342.5 438.5L342.5 512.5Z" fill="#EDEDED" stroke="#C3C3C3" stroke-width="8"/>
<path d="M795 499.5L902.5 499.5L902.5 634L755.5 634L755.5 532L795 511L795 499.5Z" fill="#EDEDED" stroke="#C3C3C3" stroke-width="8"/>
<path d="M697 535L748.5 535L748.5 633.5L697 633.5L697 535Z" fill="#EDEDED" stroke="#C3C3C3" stroke-width="8"/>
<path d="M752.5 529L790.5 509L790.5 463L697 463L697 529L752.5 529Z" fill="#EDEDED" stroke="#C3C3C3" stroke-width="8"/>
<path d="M795.5 361L903 361L903 495.5L795.5 495.5L795.5 458L696.5 458L696.5 393.5L756 393.5L795.5 372.5L795.5 361Z" fill="#EDEDED" stroke="#C3C3C3" stroke-width="8"/>
<path d="M753 390.5L791 370.5L791 324.5L697.5 324.5L697.5 390.5L753 390.5Z" fill="#EDEDED" stroke="#C3C3C3" stroke-width="8"/>
<path d="M795.5 223L903 223L903 357.5L795.5 357.5L795.5 320L696.5 320L696.5 255.5L756 255.5L795.5 234.5L795.5 223Z" fill="#EDEDED" stroke="#C3C3C3" stroke-width="8"/>
<path d="M753 252.5L791 232.5L791 186.5L697.5 186.5L697.5 252.5L753 252.5Z" fill="#EDEDED" stroke="#C3C3C3" stroke-width="8"/>
<path d="M114 276.5L6.49999 276.5L6.5 144L104 144L104 183.5L213 181.5L213 244L153.5 244L114 265L114 276.5Z" fill="#EDEDED" stroke="#C3C3C3" stroke-width="8"/>
<path d="M157.5 249L117 269L117 311.5L213 311.5L213 249L157.5 249Z" fill="#EDEDED" stroke="#C3C3C3" stroke-width="8"/>
<path d="M114 411.5L6.49999 411.5L6.5 281L114 281L114 318.317L213 316.5L213 379L153.5 379L114 400L114 411.5Z" fill="#EDEDED" stroke="#C3C3C3" stroke-width="8"/>
<path d="M157.5 384L117 404L117 446.5L213 446.5L213 384L157.5 384Z" fill="#EDEDED" stroke="#C3C3C3" stroke-width="8"/>
<path d="M114 546.5L6.49999 546.5L6.5 416L114 416L114 453.317L213 451.5L213 514L153.5 514L114 535L114 546.5Z" fill="#EDEDED" stroke="#C3C3C3" stroke-width="8"/>
<path d="M114.5 678L7 678L7 551L114.5 551L114.5 588.317L213.5 586.5L213.5 640.5L154 640.5L114.5 661.5L114.5 678Z" fill="#EDEDED" stroke="#C3C3C3" stroke-width="8"/>
<path d="M157.5 519L117 539L117 581.5L213 581.5L213 519L157.5 519Z" fill="#EDEDED" stroke="#C3C3C3" stroke-width="8"/>
<path d="M159.5 644L119 664L119 709.5L213 709.5L213 644L159.5 644Z" fill="#EDEDED" stroke="#C3C3C3" stroke-width="8"/>
<path d="M795.5 212.5L890 212.5L890 166L890 151L864.5 151L836.5 151L832.5 146L795.5 166L795.5 212.5Z" fill="#EDEDED"/>
<path d="M630 180.5L610 141.5L564 141.5L564 236L624 236L624 185L630 180.5Z" fill="#EDEDED"/>
<path d="M795.5 212.5L890 212.5L890 166L890 151L864.5 151L836.5 151L832.5 146L795.5 166L795.5 212.5Z" stroke="#C3C3C3" stroke-width="8"/>
<path d="M630 180.5L610 141.5L564 141.5L564 236L624 236L624 185L630 180.5Z" stroke="#C3C3C3" stroke-width="8"/>
<path d="M496 181L476 142L430 142L430 236.5L490 236.5L490 185.5L496 181Z" fill="#EDEDED" stroke="#C3C3C3" stroke-width="8"/>
<path d="M834.5 140.5L849.5 140.5L849.5 29L598.5 29L598.5 137.5L612.5 137.5L635.5 182L630 185L630 212L630 237L691 237L691 179.5L790.5 179.5L790.5 164L834.5 140.5Z" fill="#EDEDED" stroke="#C3C3C3" stroke-width="8"/>
<path d="M558.5 137L592.5 137L592.5 30.5L463.5 30.5L463.5 137L477.5 137L501.5 182.5L496 185.5L496 236.5L558.5 236.5L558.5 137Z" fill="#EDEDED" stroke="#C3C3C3" stroke-width="8"/>
<path d="M362.5 181L342.5 142L296.5 142L296.5 236.5L356.5 236.5L356.5 185.5L362.5 181Z" fill="#EDEDED" stroke="#C3C3C3" stroke-width="8"/>
<path d="M425 137L459 137L459 30.5L330 30.5L330 137L344 137L368 182.5L362.5 185.5L362.5 236.5L425 236.5L425 137Z" fill="#EDEDED" stroke="#C3C3C3" stroke-width="8"/>
<path d="M211.5 4L6 3.99998" stroke="#C3C3C3" stroke-width="8"/>
</svg>
