<svg width="908" height="763" viewBox="0 0 908 763" fill="none" xmlns="http://www.w3.org/2000/svg">
<path fill-rule="evenodd" clip-rule="evenodd" d="M694 713.5H622.5L622.5 697.5L583.5 697.5V634.5H622.5V594H573.5V597.5L383 597.5H293L293 635H332V697.5L293 697.5V719H221L223 235L633.5 235V131H589.5V43.0002H633.5V15.0002H680V24.5002H694L694 713.5ZM573.5 387L573.5 545H570.5V511.5L541 511.5V537.5H536V511.5H455.5V534.5H450.5V511.5L346.5 511.5V545H340L340 387L418.5 387H474V426.5H512.5V387H517.5V426.5H570.5V387H573.5Z" fill="#EDEDED" stroke="#C3C3C3" stroke-width="8"/>
<path d="M581.5 696.5L581.5 604L338.5 604V696.5L581.5 696.5Z" fill="#EDEDED" stroke="#C3C3C3" stroke-width="8"/>
<path d="M475 506H569.5V435H475V506Z" fill="#EDEDED" stroke="#C3C3C3" stroke-width="8"/>
<path d="M347 506L468 506L468 394H347V506Z" fill="#EDEDED" stroke="#C3C3C3" stroke-width="8"/>
<path d="M567 133.5H582.5L582.5 26.5L455 26.5L455 130L489.5 130V232L543.5 232V175.5L567 133.5Z" fill="#EDEDED" stroke="#C3C3C3" stroke-width="8"/>
<path d="M618 232V137.5H572L548 181V232L618 232Z" fill="#EDEDED" stroke="#C3C3C3" stroke-width="8"/>
<path d="M432 132.5H447.5L447.5 25.5L320 25.5L320 129L354.5 129V231L408.5 231V174.5L432 132.5Z" fill="#EDEDED" stroke="#C3C3C3" stroke-width="8"/>
<path d="M296.5 133.5H312L312 26.5L58 26.5L58 126.5H72L116.5 150V175.5L219 175.5V232L273 232V175.5L296.5 133.5Z" fill="#EDEDED" stroke="#C3C3C3" stroke-width="8"/>
<path d="M215.5 303.5L215.5 253.5H170L163.5 263L117.5 238L117.5 222L6 222L6 334.5L117.5 334.5V323.5L163.5 303.5H215.5Z" fill="#EDEDED" stroke="#C3C3C3" stroke-width="8"/>
<path d="M483 231V136.5H437L413 180V231L483 231Z" fill="#EDEDED" stroke="#C3C3C3" stroke-width="8"/>
<path d="M903.5 123.5L903.5 4.50018L699.5 4.50017V92.0003L752 92.0003L808.5 119V123.5L903.5 123.5Z" fill="#EDEDED" stroke="#C3C3C3" stroke-width="8"/>
<path d="M804.5 169V122.5L757 98.5002L701.5 98.5002V169L804.5 169Z" fill="#EDEDED" stroke="#C3C3C3" stroke-width="8"/>
<path d="M804.5 169V122.5L757 98.5002L701.5 98.5002V169L804.5 169Z" fill="#EDEDED" stroke="#C3C3C3" stroke-width="8"/>
<path d="M903.5 269.5V140L810.5 140V175.5L699.5 175.5V238H752.5L757.5 231.5L800.5 256.5V269.5L903.5 269.5Z" fill="#EDEDED" stroke="#C3C3C3" stroke-width="8"/>
<path d="M794.5 304V257.5L759 237L754.5 244L700 244V304H794.5Z" fill="#EDEDED" stroke="#C3C3C3" stroke-width="8"/>
<path d="M903 405.5V276H800.5V311.5L699.5 311.5V374H752.5L757.5 367.5L800.5 392.5V405.5L903 405.5Z" fill="#EDEDED" stroke="#C3C3C3" stroke-width="8"/>
<path d="M794.5 440V393.5L759 373L754.5 380H700V440H794.5Z" fill="#EDEDED" stroke="#C3C3C3" stroke-width="8"/>
<path d="M904 540.5V411H800.5V446.5L699.5 446.5V509H752.5L757.5 502.5L800.5 527.5V540.5L904 540.5Z" fill="#EDEDED" stroke="#C3C3C3" stroke-width="8"/>
<path d="M777 705L903 705L903 545.5L801.5 545.5V580.5H700.501V651L756.001 651L777 697.5V705Z" fill="#EDEDED" stroke="#C3C3C3" stroke-width="8"/>
<path d="M772 759L772 701.5L753 656L733.5 667.5H708L708 759L772 759Z" fill="#EDEDED" stroke="#C3C3C3" stroke-width="8"/>
<path d="M794.5 575V528.5L759 508L754.5 515H700V575H794.5Z" fill="#EDEDED" stroke="#C3C3C3" stroke-width="8"/>
<path d="M348 231V136.5H302L278 180V231L348 231Z" fill="#EDEDED" stroke="#C3C3C3" stroke-width="8"/>
<path d="M18.5 204L111.5 204L111.5 154.934L68.6905 132L18.5 132L18.5 204Z" fill="#EDEDED" stroke="#C3C3C3" stroke-width="8"/>
<path d="M122 370L215 370L215 308L164 308L122 328L122 370Z" fill="#EDEDED" stroke="#C3C3C3" stroke-width="8"/>
<path d="M213.5 184L120.5 184L120.5 229L159.5 250L163.5 246L213.5 246L213.5 184Z" fill="#EDEDED" stroke="#C3C3C3" stroke-width="8"/>
<path d="M214 441.5L214 378H116L116 342.5L4.5 342.5L4.5 472.5L116 472.5V461.5L162 441.5H214Z" fill="#EDEDED" stroke="#C3C3C3" stroke-width="8"/>
<path d="M213.5 446L162.5 446L120.5 466L120.5 501L158 518L213.5 518L213.5 446Z" fill="#EDEDED" stroke="#C3C3C3" stroke-width="8"/>
<path d="M116 477.5L116 508L154.5 525.5L154.5 633L29.0001 633L29.0001 610L5.49999 610L5.5 477.5L116 477.5Z" fill="#EDEDED" stroke="#C3C3C3" stroke-width="8"/>
<path d="M162 525.5L213.5 525.5L213.5 633L162 633L162 525.5Z" fill="#EDEDED" stroke="#C3C3C3" stroke-width="8"/>
</svg>
