<svg width="925" height="757" viewBox="0 0 925 757" fill="none" xmlns="http://www.w3.org/2000/svg">
<path d="M711 548V642H762V548H711Z" fill="#EDEDED"/>
<path d="M772.5 543.5V648.5H900V622H921V509.5H812.5V517.5L772.5 543.5Z" fill="#EDEDED"/>
<path d="M711 471V512.5H737.5V527L762 529L804 512.5V471H711Z" fill="#EDEDED"/>
<path fill-rule="evenodd" clip-rule="evenodd" d="M295.5 752.5H220.5V28H282.5V48.5H331V130.5H286.5V245H699H704.5V705.5H634.5L633 703H590V653H629V608.5H295.5V653H331V698.5L295.5 703V748.5V752.5ZM575 564H582.5V397.5H446V436.5H409.5V397.5H402.5V420H396.5V431H370.5V420H349V397.5H342V560H349V529H377.5V552H383.5V529H467.5V548H472.5V529H575V564ZM588 349.5V318.5H629V349.5H588ZM295.5 320.5H331V349.5H295.5V320.5Z" fill="#EDEDED"/>
<path d="M453 404.5V517.5H575V404.5H453Z" fill="#EDEDED"/>
<path d="M446 443.5H349V517.5H446V443.5Z" fill="#EDEDED"/>
<path d="M119 680.5L155 659.5L160 665.5H189.5V680.5H215.5V726H119V680.5Z" fill="#EDEDED"/>
<path d="M215.5 601V648.5H189.5V659.5H162.5L158 653.5L115.5 676V688H10V651H17.5V618.5H10V566H111V601H215.5Z" fill="#EDEDED"/>
<path d="M119 541.5L155 520.5L160 527L189.5 529V543.5H213.5V588H119V541.5Z" fill="#EDEDED"/>
<path d="M113.5 282H4V317.5H18V350H4V414H113.5V401L158 377.5L162.5 382.5H189.5V372H213.5V320.5H181L166.5 324.5H140L115.5 317.5H113.5V282Z" fill="#EDEDED"/>
<path d="M119 404.5L158 385.5L160 390H189.5V404.5H213.5V451.5H119V404.5Z" fill="#EDEDED"/>
<path d="M215.5 461.5V509.5H189.5V520.5H162.5L158 512.5L115.5 538.5V551.5H6.5V422H113.5V457L137 463H166.5L185 459H215.5V461.5Z" fill="#EDEDED"/>
<path d="M4 145.5V273.5H113.5V262L158 238.5L162.5 245H189.5V232.5H215.5V181.5H178L160 187H140L111.5 181.5H104.5V144.5L4 145.5Z" fill="#EDEDED"/>
<path d="M119 267.5L158 248L160 252H189.5V267.5H213.5H215.5V312.5H119V267.5Z" fill="#EDEDED"/>
<path d="M113.5 126L158 106H191.5V119H215.5V174.5H111.5V126H113.5Z" fill="#EDEDED"/>
<path d="M15 4V135.5H104.5V126L158 95H189.5V87V82.5H215.5V4H15Z" fill="#EDEDED"/>
<path d="M339 135.5V28H465.5V135.5H433L426 161V187L429.5 203.5V238.5H380V212.5H370.5V187L377 181.5L349 135.5H339Z" fill="#EDEDED"/>
<path d="M349 144.5H302V238.5H349V212.5H361V187L349 144.5Z" fill="#EDEDED"/>
<path d="M483.5 141H438.5V238.5H483.5V212.5H498.5V181.5L489 149.5L483.5 141Z" fill="#EDEDED"/>
<path d="M474 28V135.5H489L511.5 181.5L505.5 187V212.5H517V238.5H565V203.5L561.5 191.5V161L569 135.5H605V48.5H599V28H474Z" fill="#EDEDED"/>
<path d="M612.5 48.5V135.5H624L648.5 181.5L643 187V212.5H654.5V238.5H704.5V178.5H804V165.5L851.5 141H861V28H629V48.5H612.5Z" fill="#EDEDED"/>
<path d="M711 270.5V323H748.5L758.5 318.5H786.5L812.5 327V360.5H907V318.5H921V233.5H917.5V227H812.5V241.5L766.5 266L762 260.5H737.5V270.5H711Z" fill="#EDEDED"/>
<path d="M812.5 165.5L846.5 149.5L851.5 154.5H880.5V169H907V212.5H812.5V165.5Z" fill="#EDEDED"/>
<path d="M711 191.5V238.5H737.5V253H762L804 238.5V191.5H711Z" fill="#EDEDED"/>
<path d="M711 409V462H748.5L758.5 455.5H786.5L812.5 465V498.5H900V485H921V376.5V370H812.5V381.5L766.5 404.5L762 397.5H737.5V409H711Z" fill="#EDEDED"/>
<path d="M711 332V376.5H737.5V390H766.5L804 376.5V332H711Z" fill="#EDEDED"/>
<path d="M575 144.5V238.5H624V212.5H634.5V187L624 144.5H575Z" fill="#EDEDED"/>
<path d="M423 622V665.5H453V705.5H582.5L579.5 622H423Z" fill="#EDEDED"/>
<path d="M711 548V642H762V548H711Z" stroke="#C3C3C3" stroke-width="8"/>
<path d="M772.5 543.5V648.5H900V622H921V509.5H812.5V517.5L772.5 543.5Z" stroke="#C3C3C3" stroke-width="8"/>
<path d="M711 471V512.5H737.5V527L762 529L804 512.5V471H711Z" stroke="#C3C3C3" stroke-width="8"/>
<path fill-rule="evenodd" clip-rule="evenodd" d="M295.5 752.5H220.5V28H282.5V48.5H331V130.5H286.5V245H699H704.5V705.5H634.5L633 703H590V653H629V608.5H295.5V653H331V698.5L295.5 703V748.5V752.5ZM575 564H582.5V397.5H446V436.5H409.5V397.5H402.5V420H396.5V431H370.5V420H349V397.5H342V560H349V529H377.5V552H383.5V529H467.5V548H472.5V529H575V564ZM588 349.5V318.5H629V349.5H588ZM295.5 320.5H331V349.5H295.5V320.5Z" stroke="#C3C3C3" stroke-width="8"/>
<path d="M453 404.5V517.5H575V404.5H453Z" stroke="#C3C3C3" stroke-width="8"/>
<path d="M446 443.5H349V517.5H446V443.5Z" stroke="#C3C3C3" stroke-width="8"/>
<path d="M119 680.5L155 659.5L160 665.5H189.5V680.5H215.5V726H119V680.5Z" stroke="#C3C3C3" stroke-width="8"/>
<path d="M215.5 601V648.5H189.5V659.5H162.5L158 653.5L115.5 676V688H10V651H17.5V618.5H10V566H111V601H215.5Z" stroke="#C3C3C3" stroke-width="8"/>
<path d="M119 541.5L155 520.5L160 527L189.5 529V543.5H213.5V588H119V541.5Z" stroke="#C3C3C3" stroke-width="8"/>
<path d="M113.5 282H4V317.5H18V350H4V414H113.5V401L158 377.5L162.5 382.5H189.5V372H213.5V320.5H181L166.5 324.5H140L115.5 317.5H113.5V282Z" stroke="#C3C3C3" stroke-width="8"/>
<path d="M119 404.5L158 385.5L160 390H189.5V404.5H213.5V451.5H119V404.5Z" stroke="#C3C3C3" stroke-width="8"/>
<path d="M215.5 461.5V509.5H189.5V520.5H162.5L158 512.5L115.5 538.5V551.5H6.5V422H113.5V457L137 463H166.5L185 459H215.5V461.5Z" stroke="#C3C3C3" stroke-width="8"/>
<path d="M4 145.5V273.5H113.5V262L158 238.5L162.5 245H189.5V232.5H215.5V181.5H178L160 187H140L111.5 181.5H104.5V144.5L4 145.5Z" stroke="#C3C3C3" stroke-width="8"/>
<path d="M119 267.5L158 248L160 252H189.5V267.5H213.5H215.5V312.5H119V267.5Z" stroke="#C3C3C3" stroke-width="8"/>
<path d="M113.5 126L158 106H191.5V119H215.5V174.5H111.5V126H113.5Z" stroke="#C3C3C3" stroke-width="8"/>
<path d="M15 4V135.5H104.5V126L158 95H189.5V87V82.5H215.5V4H15Z" stroke="#C3C3C3" stroke-width="8"/>
<path d="M339 135.5V28H465.5V135.5H433L426 161V187L429.5 203.5V238.5H380V212.5H370.5V187L377 181.5L349 135.5H339Z" stroke="#C3C3C3" stroke-width="8"/>
<path d="M349 144.5H302V238.5H349V212.5H361V187L349 144.5Z" stroke="#C3C3C3" stroke-width="8"/>
<path d="M483.5 141H438.5V238.5H483.5V212.5H498.5V181.5L489 149.5L483.5 141Z" stroke="#C3C3C3" stroke-width="8"/>
<path d="M474 28V135.5H489L511.5 181.5L505.5 187V212.5H517V238.5H565V203.5L561.5 191.5V161L569 135.5H605V48.5H599V28H474Z" stroke="#C3C3C3" stroke-width="8"/>
<path d="M612.5 48.5V135.5H624L648.5 181.5L643 187V212.5H654.5V238.5H704.5V178.5H804V165.5L851.5 141H861V28H629V48.5H612.5Z" stroke="#C3C3C3" stroke-width="8"/>
<path d="M711 270.5V323H748.5L758.5 318.5H786.5L812.5 327V360.5H907V318.5H921V233.5H917.5V227H812.5V241.5L766.5 266L762 260.5H737.5V270.5H711Z" stroke="#C3C3C3" stroke-width="8"/>
<path d="M812.5 165.5L846.5 149.5L851.5 154.5H880.5V169H907V212.5H812.5V165.5Z" stroke="#C3C3C3" stroke-width="8"/>
<path d="M711 191.5V238.5H737.5V253H762L804 238.5V191.5H711Z" stroke="#C3C3C3" stroke-width="8"/>
<path d="M711 409V462H748.5L758.5 455.5H786.5L812.5 465V498.5H900V485H921V376.5V370H812.5V381.5L766.5 404.5L762 397.5H737.5V409H711Z" stroke="#C3C3C3" stroke-width="8"/>
<path d="M711 332V376.5H737.5V390H766.5L804 376.5V332H711Z" stroke="#C3C3C3" stroke-width="8"/>
<path d="M575 144.5V238.5H624V212.5H634.5V187L624 144.5H575Z" stroke="#C3C3C3" stroke-width="8"/>
<path d="M423 622V665.5H453V705.5H582.5L579.5 622H423Z" stroke="#C3C3C3" stroke-width="8"/>
</svg>
