<svg width="922" height="781" viewBox="0 0 922 781" fill="none" xmlns="http://www.w3.org/2000/svg">
<path d="M213 331L117.5 332.5V377.5L159 391H187V377.5H213V331Z" fill="#EDEDED"/>
<path d="M24 496.5H112V461.5L132.5 456.5H164.5L178 461.5L213 456.5V409H193H187V397.5H164.5L159 403L112 380V365.5H5.5L5.5 479H24V496.5Z" fill="#EDEDED"/>
<path d="M153 533.5H187V515H213V470H119V515L153 533.5Z" fill="#EDEDED"/>
<path d="M24 648H153V545L112 520.5V510H5.5L5.5 620.5H24L24 648Z" fill="#EDEDED"/>
<path d="M164.5 648H213V545H187H164.5V648Z" fill="#EDEDED"/>
<path d="M220.5 235H269V212H280.5V187L273.5 181.5L299.5 136H309.5V46.5H297V29.5H58.5L58.5 140H71.5L117.5 164.5V178H220.5V235Z" fill="#EDEDED"/>
<path d="M18 212H112L112 167L74 147.5L71.5 152.5H42V167H18V212Z" fill="#EDEDED"/>
<path d="M18 356.5H94.5H112V325.5L138.5 318H162L180.5 322H213V270H187V260.5H159V266L112 242.5V227.5H5.5L5 316H18L18 356.5Z" fill="#EDEDED"/>
<path d="M117.5 239L156.5 256.5L159 252H187V239H213V191.5H117.5L117.5 239Z" fill="#EDEDED"/>
<path d="M358.5 239H409.5V212H418.5V187L414.5 181.5L437 136H446V29.5H327.5V46.5H318.5V139H355.5L362.5 163.5V187L358.5 202.5V239Z" fill="#EDEDED"/>
<path d="M426 184L441 143H486.5V239H441V212H426V184Z" fill="#EDEDED"/>
<path d="M287.5 181.5V212H303V239H348V143H303L287.5 181.5Z" fill="#EDEDED"/>
<path fill-rule="evenodd" clip-rule="evenodd" d="M701.5 29.5H638.5V46.5V50.5H597.5V136H643V244.5H220.5L220.5 749H293V713.5H333V653.5H293V609.5H426V634H450.5V609.5H473V619H497V609.5H542H546.5V619H556V609.5H568.5V619H578V609.5H628V653.5H589.5V714L628 713.5V749H701.5V29.5ZM340.5 397.5V560H348V530.5H450.5V545H459V530.5H537.5V555.5H556V530.5H578V560H584V403H578V421.5H524V397.5L340.5 397.5ZM628 352.5H589.5V318H628V352.5ZM327.5 352.5H297V318H327.5V352.5Z" fill="#EDEDED"/>
<path d="M348 516H467V409H348V516Z" fill="#EDEDED"/>
<path d="M481.5 516H574.5V444.5H510V405.5H481.5V516Z" fill="#EDEDED"/>
<path d="M340.5 709L578 713.5V627H459V641H418.5V619H340.5V709Z" fill="#EDEDED"/>
<path d="M497 239H546.5V212H556V187L550.5 182L574.5 138H589.5V29.5H459V136H493V143L499.5 163V187L497 199.5V239Z" fill="#EDEDED"/>
<path d="M564.5 182V212H578V236.5H624V143H578L564.5 182Z" fill="#EDEDED"/>
<path d="M707.5 85.5V4H906V138H820V124L763 97H734V85.5H707.5Z" fill="#EDEDED"/>
<path d="M709.5 119.5V174.5H814.5V128L766.5 104H732V119.5H711.5H709.5Z" fill="#EDEDED"/>
<path d="M709.5 234V184H748L771 188H786L820 180.5V146H915.5V274.5H812V265L766.5 241L763 244.5H736.5V234H709.5Z" fill="#EDEDED"/>
<path d="M711.5 372.5V322.5H748L758.5 326H786L812 319.5V284.5H917.5V319.5H906V351.5H917.5V413H812V402L766.5 378L763 383H736.5V372.5H711.5Z" fill="#EDEDED"/>
<path d="M711.5 267.5V312H806.5V267.5L768.5 248L766.5 253H736.5V267.5H711.5Z" fill="#EDEDED"/>
<path d="M804 405.5L768.5 386.5L763 391H736.5V402V405.5H711.5V450H804V405.5Z" fill="#EDEDED"/>
<path d="M709.5 508V462H751.5L763 464H786L810 457.5L813 456V421.5H917.5V551.5H812V539.5L766.5 516L763 521.5H736.5V511.5H711.5V508H709.5Z" fill="#EDEDED"/>
<path d="M804 543.5L766.5 523.5L763 530.5H736.5V543.5H711.5V588L806.5 590V543.5H804Z" fill="#EDEDED"/>
<path d="M813 560V594.5L789 601.5H758.5L746 596.5H709.5V649.5H736.5V666H763L783.5 709V720.5H904L906 649.5H900.5V623H917.5V560H815H813Z" fill="#EDEDED"/>
<path d="M717.5 776.5H763V745.5H776.5V714L758.5 672.5L740.5 682H717.5V776.5Z" fill="#EDEDED"/>
<path d="M632 756L701.5 753V749M701.5 749V29.5H638.5V46.5V50.5H597.5V136H643V244.5H220.5L220.5 749H293V713.5H333V653.5H293V609.5H426V634H450.5V609.5H473V619H497V609.5H542H546.5V619H556V609.5H568.5V619H578V609.5H628V653.5H589.5V714L628 713.5V749H701.5ZM24 648H153V545L112 520.5V510H5.5L5.5 620.5H24L24 648ZM153 533.5H187V515H213V470H119V515L153 533.5ZM164.5 648H213V545H187H164.5V648ZM24 496.5H112V461.5L132.5 456.5H164.5L178 461.5L213 456.5V409H193H187V397.5H164.5L159 403L112 380V365.5H5.5L5.5 479H24V496.5ZM213 331L117.5 332.5V377.5L159 391H187V377.5H213V331ZM18 356.5H94.5H112V325.5L138.5 318H162L180.5 322H213V270H187V260.5H159V266L112 242.5V227.5H5.5L5 316H18L18 356.5ZM117.5 239L156.5 256.5L159 252H187V239H213V191.5H117.5L117.5 239ZM220.5 235H269V212H280.5V187L273.5 181.5L299.5 136H309.5V46.5H297V29.5H58.5L58.5 140H71.5L117.5 164.5V178H220.5V235ZM18 212H112L112 167L74 147.5L71.5 152.5H42V167H18V212ZM287.5 181.5V212H303V239H348V143H303L287.5 181.5ZM358.5 239H409.5V212H418.5V187L414.5 181.5L437 136H446V29.5H327.5V46.5H318.5V139H355.5L362.5 163.5V187L358.5 202.5V239ZM426 184L441 143H486.5V239H441V212H426V184ZM497 239H546.5V212H556V187L550.5 182L574.5 138H589.5V29.5H459V136H493V143L499.5 163V187L497 199.5V239ZM564.5 182V212H578V236.5H624V143H578L564.5 182ZM707.5 85.5V4H906V138H820V124L763 97H734V85.5H707.5ZM709.5 119.5V174.5H814.5V128L766.5 104H732V119.5H711.5H709.5ZM709.5 234V184H748L771 188H786L820 180.5V146H915.5V274.5H812V265L766.5 241L763 244.5H736.5V234H709.5ZM711.5 267.5V312H806.5V267.5L768.5 248L766.5 253H736.5V267.5H711.5ZM711.5 372.5V322.5H748L758.5 326H786L812 319.5V284.5H917.5V319.5H906V351.5H917.5V413H812V402L766.5 378L763 383H736.5V372.5H711.5ZM804 405.5L768.5 386.5L763 391H736.5V402V405.5H711.5V450H804V405.5ZM709.5 508V462H751.5L763 464H786L810 457.5L813 456V421.5H917.5V551.5H812V539.5L766.5 516L763 521.5H736.5V511.5H711.5V508H709.5ZM804 543.5L766.5 523.5L763 530.5H736.5V543.5H711.5V588L806.5 590V543.5H804ZM813 560V594.5L789 601.5H758.5L746 596.5H709.5V649.5H736.5V666H763L783.5 709V720.5H904L906 649.5H900.5V623H917.5V560H815H813ZM717.5 776.5H763V745.5H776.5V714L758.5 672.5L740.5 682H717.5V776.5ZM340.5 560V397.5L524 397.5V421.5H578V403H584V560H578V530.5H556V555.5H537.5V530.5H459V545H450.5V530.5H348V560H340.5ZM589.5 352.5H628V318H589.5V352.5ZM297 352.5H327.5V318H297V352.5ZM348 516H467V409H348V516ZM481.5 516H574.5V444.5H510V405.5H481.5V516ZM340.5 709L578 713.5V627H459V641H418.5V619H340.5V709Z" stroke="#C3C3C3" stroke-width="8"/>
</svg>
