<svg width="932" height="756" viewBox="0 0 932 756" fill="none" xmlns="http://www.w3.org/2000/svg">
<path d="M212 430.5V378.5H179L162.5 383.5H139L112.5 376V341H4V475.5H112.5V459.5L157 436.5L162.5 440.5H186.5V430.5H212Z" fill="#EDEDED"/>
<path d="M212 508.5V462H186.5V450H157L119 462V508.5H212Z" fill="#EDEDED"/>
<path d="M157 636.5V521.5H112.5V501H97.5V485H4V594.5H13.5H16.5V609.5H112.5V636.5H157Z" fill="#EDEDED"/>
<path d="M212 627V521.5H166V627H212Z" fill="#EDEDED"/>
<path d="M212 711.5V661.5H186.5V647.5H102.5V711.5H212Z" fill="#EDEDED"/>
<path d="M112.5 200.5H217.5H224V226.5H269.5V200.5H281.5V178.5L276 171.5L297.5 127H308.5V39.5H297.5V22H54V119H67.5L112.5 144.5V200.5Z" fill="#EDEDED"/>
<path d="M212 289L212 208.5H4L4 306H17.5V335H112.5V319.5L157 297L162.5 302H186.5V293H212V289Z" fill="#EDEDED"/>
<path d="M103 193V150.5L67.5 127L62 137.5H36V150.5H9.5V193H103Z" fill="#EDEDED"/>
<path d="M287 171.5L303.5 133.5H348V226.5H303.5V200.5H287V171.5Z" fill="#EDEDED"/>
<path d="M546 226.5H494.5V193L499.5 171.5V150.5L494.5 127L457.5 127L457.5 22L585 22L585 127H573L549 171.5L555.5 175V200.5H546V226.5Z" fill="#EDEDED"/>
<path d="M560.5 171.5L578.5 133.5H620.5V226.5H578.5V200.5H565V171.5H560.5Z" fill="#EDEDED"/>
<path d="M407.5 226.5H358.5V189.5L363.5 175V150.5L355.5 127H319.5V36H322.5V22H449L449 127H437.5L413.5 171.5L418 175V200.5H407.5V226.5Z" fill="#EDEDED"/>
<path d="M483 226.5V133.5L442.5 133.5L425.5 171.5V200.5H442.5V226.5L483 226.5Z" fill="#EDEDED"/>
<path d="M711 362V311.5H746L756.5 315H782L811.5 307V272.5H919.5L919.5 307H905.5V340.5H919.5V404H808.5V387.5L763.5 368L760.5 371H737V362H711Z" fill="#EDEDED"/>
<path d="M803.5 302V256L763.5 240H737V256H711V302H803.5Z" fill="#EDEDED"/>
<path d="M803.5 440.5V394L763.5 378.5H732V394H711V440.5H803.5Z" fill="#EDEDED"/>
<path d="M707 222.5V171.5H746L767.5 175H786L816 171.5L819 133.5H919.5V265.5H811.5V250.5L767.5 226.5L760.5 234.5H737V222.5H707Z" fill="#EDEDED"/>
<path d="M707 76.5V4H905.5V39.5H928V106.5H905.5V127H819V111L760.5 85H732V76.5H707Z" fill="#EDEDED"/>
<path d="M811.5 162V116.5L760.5 93H732V106.5H707V162H811.5Z" fill="#EDEDED"/>
<path d="M711 499V450H746L760.5 453H785L808.5 445.5V413.5H919.5V542H811.5V527L763.5 504L759.5 511H737V499H711Z" fill="#EDEDED"/>
<path d="M803.5 577V532.5L763.5 514L760.5 518.5H732V532.5H711V577H803.5Z" fill="#EDEDED"/>
<path d="M803.5 711.5V669.5L767.5 651L763.5 656.5H737V669.5H711V714.5H803.5V711.5Z" fill="#EDEDED"/>
<path d="M919.5 679.5V642.5H906V605.5H919.5V550H811.5V583.5L788.5 591H759.5L743 587.5H711V636.5H732H737V647.5H760.5L763.5 642.5L808.5 665V679.5H919.5Z" fill="#EDEDED"/>
<path fill-rule="evenodd" clip-rule="evenodd" d="M629.5 728V686.5H590V642.5H629.5V599H578.5V627H535.5V599L292.5 599V642.5H333.5V690.5L292.5 686.5V751.5H224L224 234.5L638 234.5V119H596.5L596.5 36H638V16.5H698.5L698.5 728H629.5ZM629.5 307V335V340.5H585V306L629.5 307ZM328 340.5L322.5 341H292.5V307H328V340.5ZM348 550L341.5 550V387.5H476.5V430.5H512V387.5H519V408H527V421H554.5V408H574.5V387.5H585V550H574.5V518.5H546V542H539.5V518.5H458.5L458.5 537H449L449 518.5H348V550Z" fill="#EDEDED"/>
<path d="M467 504V399H353V504H467Z" fill="#EDEDED"/>
<path d="M483 504V436.5H574.5V504H483Z" fill="#EDEDED"/>
<path d="M467 695V651H494.5V614.5H348V695L467 695Z" fill="#EDEDED"/>
<path d="M212 368V325.5H186.5V311.5H157L119 325.5V371H212V368Z" fill="#EDEDED"/>
<path d="M699.5 728H698.5M698.5 728H629.5V686.5H590V642.5H629.5V599H578.5V627H535.5V599L292.5 599V642.5H333.5V690.5L292.5 686.5V751.5H224L224 234.5L638 234.5V119H596.5L596.5 36H638V16.5H698.5L698.5 728ZM212 627V521.5H166V627H212ZM157 636.5V521.5H112.5V501H97.5V485H4V594.5H13.5H16.5V609.5H112.5V636.5H157ZM212 711.5V661.5H186.5V647.5H102.5V711.5H212ZM212 508.5V462H186.5V450H157L119 462V508.5H212ZM212 430.5V378.5H179L162.5 383.5H139L112.5 376V341H4V475.5H112.5V459.5L157 436.5L162.5 440.5H186.5V430.5H212ZM212 289L212 208.5H4L4 306H17.5V335H112.5V319.5L157 297L162.5 302H186.5V293H212V289ZM212 368V325.5H186.5V311.5H157L119 325.5V371H212V368ZM112.5 200.5H217.5H224V226.5H269.5V200.5H281.5V178.5L276 171.5L297.5 127H308.5V39.5H297.5V22H54V119H67.5L112.5 144.5V200.5ZM103 193V150.5L67.5 127L62 137.5H36V150.5H9.5V193H103ZM287 171.5L303.5 133.5H348V226.5H303.5V200.5H287V171.5ZM407.5 226.5H358.5V189.5L363.5 175V150.5L355.5 127H319.5V36H322.5V22H449L449 127H437.5L413.5 171.5L418 175V200.5H407.5V226.5ZM483 226.5V133.5L442.5 133.5L425.5 171.5V200.5H442.5V226.5L483 226.5ZM546 226.5H494.5V193L499.5 171.5V150.5L494.5 127L457.5 127L457.5 22L585 22L585 127H573L549 171.5L555.5 175V200.5H546V226.5ZM560.5 171.5L578.5 133.5H620.5V226.5H578.5V200.5H565V171.5H560.5ZM707 76.5V4H905.5V39.5H928V106.5H905.5V127H819V111L760.5 85H732V76.5H707ZM811.5 162V116.5L760.5 93H732V106.5H707V162H811.5ZM707 222.5V171.5H746L767.5 175H786L816 171.5L819 133.5H919.5V265.5H811.5V250.5L767.5 226.5L760.5 234.5H737V222.5H707ZM803.5 302V256L763.5 240H737V256H711V302H803.5ZM711 362V311.5H746L756.5 315H782L811.5 307V272.5H919.5L919.5 307H905.5V340.5H919.5V404H808.5V387.5L763.5 368L760.5 371H737V362H711ZM803.5 440.5V394L763.5 378.5H732V394H711V440.5H803.5ZM711 499V450H746L760.5 453H785L808.5 445.5V413.5H919.5V542H811.5V527L763.5 504L759.5 511H737V499H711ZM803.5 577V532.5L763.5 514L760.5 518.5H732V532.5H711V577H803.5ZM919.5 679.5V642.5H906V605.5H919.5V550H811.5V583.5L788.5 591H759.5L743 587.5H711V636.5H732H737V647.5H760.5L763.5 642.5L808.5 665V679.5H919.5ZM803.5 711.5V669.5L767.5 651L763.5 656.5H737V669.5H711V714.5H803.5V711.5ZM629.5 335V307L585 306V340.5H629.5V335ZM322.5 341L328 340.5V307H292.5V341H322.5ZM341.5 550L348 550V518.5H449L449 537H458.5L458.5 518.5H539.5V542H546V518.5H574.5V550H585V387.5H574.5V408H554.5V421H527V408H519V387.5H512V430.5H476.5V387.5H341.5V550ZM467 504V399H353V504H467ZM483 504V436.5H574.5V504H483ZM467 695V651H494.5V614.5H348V695L467 695Z" stroke="#C3C3C3" stroke-width="8"/>
</svg>
